<svg xmlns="http://www.w3.org/2000/svg" width="2604" height="520" viewBox="0 0 2604 520">
<rect width="100%" height="100%" fill="#f7f9fc"/>
<text x="24" y="22" font-size="18" font-weight="700" fill="#15212b">Best Downbeat F1 Progress</text>
<text x="24" y="42" font-size="12" fill="#425466">x-axis is estimated completion order from history/config file timestamps.</text>
<line x1="72" y1="350.0" x2="2580" y2="350.0" stroke="#d7dce2" stroke-width="1"/>
<text x="62" y="354.0" text-anchor="end" font-size="12" fill="#425466">0.200</text>
<line x1="72" y1="285.6" x2="2580" y2="285.6" stroke="#d7dce2" stroke-width="1"/>
<text x="62" y="289.6" text-anchor="end" font-size="12" fill="#425466">0.280</text>
<line x1="72" y1="221.2" x2="2580" y2="221.2" stroke="#d7dce2" stroke-width="1"/>
<text x="62" y="225.2" text-anchor="end" font-size="12" fill="#425466">0.360</text>
<line x1="72" y1="156.8" x2="2580" y2="156.8" stroke="#d7dce2" stroke-width="1"/>
<text x="62" y="160.8" text-anchor="end" font-size="12" fill="#425466">0.440</text>
<line x1="72" y1="92.4" x2="2580" y2="92.4" stroke="#d7dce2" stroke-width="1"/>
<text x="62" y="96.4" text-anchor="end" font-size="12" fill="#425466">0.520</text>
<line x1="72" y1="28.0" x2="2580" y2="28.0" stroke="#d7dce2" stroke-width="1"/>
<text x="62" y="32.0" text-anchor="end" font-size="12" fill="#425466">0.600</text>
<line x1="72" y1="28" x2="72" y2="350" stroke="#425466" stroke-width="1.2"/>
<line x1="72" y1="350" x2="2580" y2="350" stroke="#425466" stroke-width="1.2"/>
<g>
<title>beat_transcription&#10;best_downbeat_f1=0.3141&#10;completed_at~2026-03-12 16:43:41 UTC</title>
<rect x="60.0" y="258.1" width="24" height="91.9" fill="#8fb8de" opacity="0.85"/>
<circle cx="72.0" cy="258.1" r="3.5" fill="#1f5f99"/>
<text x="72.0" y="368.0" text-anchor="middle" font-size="11" fill="#425466">1</text>
<text x="68.0" y="382.0" transform="rotate(60 68.0,382.0)" font-size="11" fill="#425466">beat_transcription</text>
</g>
<g>
<title>exp_beat_plus_downbeat_logits&#10;best_downbeat_f1=0.3371&#10;completed_at~2026-03-13 01:30:16 UTC</title>
<rect x="118.3" y="239.7" width="24" height="110.3" fill="#8fb8de" opacity="0.85"/>
<circle cx="130.3" cy="239.7" r="3.5" fill="#1f5f99"/>
<text x="130.3" y="368.0" text-anchor="middle" font-size="11" fill="#425466">2</text>
<text x="126.3" y="382.0" transform="rotate(60 126.3,382.0)" font-size="11" fill="#425466">exp_beat_plus_downbeat_logits</text>
</g>
<g>
<title>exp_meter_classification&#10;best_downbeat_f1=0.2561&#10;completed_at~2026-03-13 02:52:15 UTC</title>
<rect x="176.7" y="304.9" width="24" height="45.1" fill="#8fb8de" opacity="0.85"/>
<circle cx="188.7" cy="304.9" r="3.5" fill="#1f5f99"/>
<text x="188.7" y="368.0" text-anchor="middle" font-size="11" fill="#425466">3</text>
<text x="184.7" y="382.0" transform="rotate(60 184.7,382.0)" font-size="11" fill="#425466">exp_meter_classification</text>
</g>
<g>
<title>exp_meter_classification_w0_1&#10;best_downbeat_f1=0.3508&#10;completed_at~2026-03-13 04:05:38 UTC</title>
<rect x="235.0" y="228.6" width="24" height="121.4" fill="#8fb8de" opacity="0.85"/>
<circle cx="247.0" cy="228.6" r="3.5" fill="#1f5f99"/>
<text x="247.0" y="368.0" text-anchor="middle" font-size="11" fill="#425466">4</text>
<text x="243.0" y="382.0" transform="rotate(60 243.0,382.0)" font-size="11" fill="#425466">exp_meter_classification_w0_1</text>
</g>
<g>
<title>exp_meter_classification_w0_3&#10;best_downbeat_f1=0.3249&#10;completed_at~2026-03-13 05:19:21 UTC</title>
<rect x="293.3" y="249.5" width="24" height="100.5" fill="#8fb8de" opacity="0.85"/>
<circle cx="305.3" cy="249.5" r="3.5" fill="#1f5f99"/>
<text x="305.3" y="368.0" text-anchor="middle" font-size="11" fill="#425466">5</text>
<text x="301.3" y="382.0" transform="rotate(60 301.3,382.0)" font-size="11" fill="#425466">exp_meter_classification_w0_3</text>
</g>
<g>
<title>exp_meter_classification_w0_0_5&#10;best_downbeat_f1=0.3903&#10;completed_at~2026-03-13 06:28:31 UTC</title>
<rect x="351.6" y="196.8" width="24" height="153.2" fill="#8fb8de" opacity="0.85"/>
<circle cx="363.6" cy="196.8" r="3.5" fill="#1f5f99"/>
<text x="363.6" y="368.0" text-anchor="middle" font-size="11" fill="#425466">6</text>
<text x="359.6" y="382.0" transform="rotate(60 359.6,382.0)" font-size="11" fill="#425466">exp_meter_classification_w0_0_5</text>
</g>
<g>
<title>exp_meter_numerator_w0_05&#10;best_downbeat_f1=0.3398&#10;completed_at~2026-03-13 07:51:48 UTC</title>
<rect x="410.0" y="237.4" width="24" height="112.6" fill="#8fb8de" opacity="0.85"/>
<circle cx="422.0" cy="237.4" r="3.5" fill="#1f5f99"/>
<text x="422.0" y="368.0" text-anchor="middle" font-size="11" fill="#425466">7</text>
<text x="418.0" y="382.0" transform="rotate(60 418.0,382.0)" font-size="11" fill="#425466">exp_meter_numerator_w0_05</text>
</g>
<g>
<title>exp_meter_context_lowres_w0_05&#10;best_downbeat_f1=0.3382&#10;completed_at~2026-03-13 09:11:30 UTC</title>
<rect x="468.3" y="238.7" width="24" height="111.3" fill="#8fb8de" opacity="0.85"/>
<circle cx="480.3" cy="238.7" r="3.5" fill="#1f5f99"/>
<text x="480.3" y="368.0" text-anchor="middle" font-size="11" fill="#425466">8</text>
<text x="476.3" y="382.0" transform="rotate(60 476.3,382.0)" font-size="11" fill="#425466">exp_meter_context_lowres_w0_05</text>
</g>
<g>
<title>exp_meter_downbeat_conditioning_w0_05&#10;best_downbeat_f1=0.3248&#10;completed_at~2026-03-13 11:46:17 UTC</title>
<rect x="526.6" y="249.5" width="24" height="100.5" fill="#8fb8de" opacity="0.85"/>
<circle cx="538.6" cy="249.5" r="3.5" fill="#1f5f99"/>
<text x="538.6" y="368.0" text-anchor="middle" font-size="11" fill="#425466">9</text>
<text x="534.6" y="382.0" transform="rotate(60 534.6,382.0)" font-size="11" fill="#425466">exp_meter_downbeat_conditioning_w0_05</text>
</g>
<g>
<title>exp_meter_classification_w0_0_5_beatpw10&#10;best_downbeat_f1=0.3599&#10;completed_at~2026-03-13 13:54:50 UTC</title>
<rect x="584.9" y="221.3" width="24" height="128.7" fill="#8fb8de" opacity="0.85"/>
<circle cx="596.9" cy="221.3" r="3.5" fill="#1f5f99"/>
<text x="596.9" y="368.0" text-anchor="middle" font-size="11" fill="#425466">10</text>
<text x="592.9" y="382.0" transform="rotate(60 592.9,382.0)" font-size="11" fill="#425466">exp_meter_classification_w0_0_5_beatpw10</text>
</g>
<g>
<title>exp_meter_classification_w0_0_5_beatpw7_5&#10;best_downbeat_f1=0.3493&#10;completed_at~2026-03-13 15:04:31 UTC</title>
<rect x="643.3" y="229.8" width="24" height="120.2" fill="#8fb8de" opacity="0.85"/>
<circle cx="655.3" cy="229.8" r="3.5" fill="#1f5f99"/>
<text x="655.3" y="368.0" text-anchor="middle" font-size="11" fill="#425466">11</text>
<text x="651.3" y="382.0" transform="rotate(60 651.3,382.0)" font-size="11" fill="#425466">exp_meter_classification_w0_0_5_beatpw7_5</text>
</g>
<g>
<title>exp_meter_classification_w0_0_5_specaug_f0_02_t0_00&#10;best_downbeat_f1=0.3504&#10;completed_at~2026-03-13 16:51:27 UTC</title>
<rect x="701.6" y="228.9" width="24" height="121.1" fill="#8fb8de" opacity="0.85"/>
<circle cx="713.6" cy="228.9" r="3.5" fill="#1f5f99"/>
<text x="713.6" y="368.0" text-anchor="middle" font-size="11" fill="#425466">12</text>
<text x="709.6" y="382.0" transform="rotate(60 709.6,382.0)" font-size="11" fill="#425466">exp_meter_classification_w0_0_5_specaug_f0_02_t0_00</text>
</g>
<g>
<title>exp_meter_classification_w0_0_5_specaug_f0_05_t0_00&#10;best_downbeat_f1=0.3146&#10;completed_at~2026-03-13 17:55:49 UTC</title>
<rect x="759.9" y="257.8" width="24" height="92.2" fill="#8fb8de" opacity="0.85"/>
<circle cx="771.9" cy="257.8" r="3.5" fill="#1f5f99"/>
<text x="771.9" y="368.0" text-anchor="middle" font-size="11" fill="#425466">13</text>
<text x="767.9" y="382.0" transform="rotate(60 767.9,382.0)" font-size="11" fill="#425466">exp_meter_classification_w0_0_5_specaug_f0_05_t0_00</text>
</g>
<g>
<title>exp_meter_classification_w0_0_5_specaug_f0_00_t0_05&#10;best_downbeat_f1=0.3743&#10;completed_at~2026-03-13 19:00:25 UTC</title>
<rect x="818.2" y="209.7" width="24" height="140.3" fill="#8fb8de" opacity="0.85"/>
<circle cx="830.2" cy="209.7" r="3.5" fill="#1f5f99"/>
<text x="830.2" y="368.0" text-anchor="middle" font-size="11" fill="#425466">14</text>
<text x="826.2" y="382.0" transform="rotate(60 826.2,382.0)" font-size="11" fill="#425466">exp_meter_classification_w0_0_5_specaug_f0_00_t0_05</text>
</g>
<g>
<title>exp_meter_classification_w0_0_5_specaug_f0_00_t0_10&#10;best_downbeat_f1=0.3581&#10;completed_at~2026-03-13 20:04:53 UTC</title>
<rect x="876.6" y="222.8" width="24" height="127.2" fill="#8fb8de" opacity="0.85"/>
<circle cx="888.6" cy="222.8" r="3.5" fill="#1f5f99"/>
<text x="888.6" y="368.0" text-anchor="middle" font-size="11" fill="#425466">15</text>
<text x="884.6" y="382.0" transform="rotate(60 884.6,382.0)" font-size="11" fill="#425466">exp_meter_classification_w0_0_5_specaug_f0_00_t0_10</text>
</g>
<g>
<title>exp_meter_classification_w0_0_5_specaug_f0_02_t0_05&#10;best_downbeat_f1=0.3705&#10;completed_at~2026-03-13 21:09:27 UTC</title>
<rect x="934.9" y="212.7" width="24" height="137.3" fill="#8fb8de" opacity="0.85"/>
<circle cx="946.9" cy="212.7" r="3.5" fill="#1f5f99"/>
<text x="946.9" y="368.0" text-anchor="middle" font-size="11" fill="#425466">16</text>
<text x="942.9" y="382.0" transform="rotate(60 942.9,382.0)" font-size="11" fill="#425466">exp_meter_classification_w0_0_5_specaug_f0_02_t0_05</text>
</g>
<g>
<title>exp_meter_classification_w0_0_5_specaug_f0_05_t0_10&#10;best_downbeat_f1=0.3604&#10;completed_at~2026-03-13 22:13:57 UTC</title>
<rect x="993.2" y="220.9" width="24" height="129.1" fill="#8fb8de" opacity="0.85"/>
<circle cx="1005.2" cy="220.9" r="3.5" fill="#1f5f99"/>
<text x="1005.2" y="368.0" text-anchor="middle" font-size="11" fill="#425466">17</text>
<text x="1001.2" y="382.0" transform="rotate(60 1001.2,382.0)" font-size="11" fill="#425466">exp_meter_classification_w0_0_5_specaug_f0_05_t0_10</text>
</g>
<g>
<title>exp_time_stretch_pm50&#10;best_downbeat_f1=0.3476&#10;completed_at~2026-03-14 02:53:04 UTC</title>
<rect x="1051.5" y="231.2" width="24" height="118.8" fill="#8fb8de" opacity="0.85"/>
<circle cx="1063.5" cy="231.2" r="3.5" fill="#1f5f99"/>
<text x="1063.5" y="368.0" text-anchor="middle" font-size="11" fill="#425466">18</text>
<text x="1059.5" y="382.0" transform="rotate(60 1059.5,382.0)" font-size="11" fill="#425466">exp_time_stretch_pm50</text>
</g>
<g>
<title>exp_chord_preinit_backbone&#10;best_downbeat_f1=0.4471&#10;completed_at~2026-03-14 04:28:02 UTC</title>
<rect x="1109.9" y="151.1" width="24" height="198.9" fill="#8fb8de" opacity="0.85"/>
<circle cx="1121.9" cy="151.1" r="3.5" fill="#1f5f99"/>
<text x="1121.9" y="368.0" text-anchor="middle" font-size="11" fill="#425466">19</text>
<text x="1117.9" y="382.0" transform="rotate(60 1117.9,382.0)" font-size="11" fill="#425466">exp_chord_preinit_backbone</text>
</g>
<g>
<title>exp_chord_preinit_stemdrop2&#10;best_downbeat_f1=0.4519&#10;completed_at~2026-03-14 06:27:47 UTC</title>
<rect x="1168.2" y="147.2" width="24" height="202.8" fill="#8fb8de" opacity="0.85"/>
<circle cx="1180.2" cy="147.2" r="3.5" fill="#1f5f99"/>
<text x="1180.2" y="368.0" text-anchor="middle" font-size="11" fill="#425466">20</text>
<text x="1176.2" y="382.0" transform="rotate(60 1176.2,382.0)" font-size="11" fill="#425466">exp_chord_preinit_stemdrop2</text>
</g>
<g>
<title>exp_chord_preinit_stemdrop2_phase&#10;best_downbeat_f1=0.4409&#10;completed_at~2026-03-14 07:54:13 UTC</title>
<rect x="1226.5" y="156.1" width="24" height="193.9" fill="#8fb8de" opacity="0.85"/>
<circle cx="1238.5" cy="156.1" r="3.5" fill="#1f5f99"/>
<text x="1238.5" y="368.0" text-anchor="middle" font-size="11" fill="#425466">21</text>
<text x="1234.5" y="382.0" transform="rotate(60 1234.5,382.0)" font-size="11" fill="#425466">exp_chord_preinit_stemdrop2_phase</text>
</g>
<g>
<title>exp_chord_preinit_stemdrop2_metertau0_5&#10;best_downbeat_f1=0.4401&#10;completed_at~2026-03-14 09:15:33 UTC</title>
<rect x="1284.8" y="156.7" width="24" height="193.3" fill="#8fb8de" opacity="0.85"/>
<circle cx="1296.8" cy="156.7" r="3.5" fill="#1f5f99"/>
<text x="1296.8" y="368.0" text-anchor="middle" font-size="11" fill="#425466">22</text>
<text x="1292.8" y="382.0" transform="rotate(60 1292.8,382.0)" font-size="11" fill="#425466">exp_chord_preinit_stemdrop2_metertau0_5</text>
</g>
<g>
<title>exp_chord_preinit_stemdrop2_drumaux&#10;best_downbeat_f1=0.4598&#10;completed_at~2026-03-14 10:44:21 UTC</title>
<rect x="1343.2" y="140.8" width="24" height="209.2" fill="#8fb8de" opacity="0.85"/>
<circle cx="1355.2" cy="140.8" r="3.5" fill="#1f5f99"/>
<text x="1355.2" y="368.0" text-anchor="middle" font-size="11" fill="#425466">23</text>
<text x="1351.2" y="382.0" transform="rotate(60 1351.2,382.0)" font-size="11" fill="#425466">exp_chord_preinit_stemdrop2_drumaux</text>
</g>
<g>
<title>exp_chord_preinit_stemdrop2_drumaux_bassaux&#10;best_downbeat_f1=0.4442&#10;completed_at~2026-03-14 12:07:52 UTC</title>
<rect x="1401.5" y="153.4" width="24" height="196.6" fill="#8fb8de" opacity="0.85"/>
<circle cx="1413.5" cy="153.4" r="3.5" fill="#1f5f99"/>
<text x="1413.5" y="368.0" text-anchor="middle" font-size="11" fill="#425466">24</text>
<text x="1409.5" y="382.0" transform="rotate(60 1409.5,382.0)" font-size="11" fill="#425466">exp_chord_preinit_stemdrop2_drumaux_bassaux</text>
</g>
<g>
<title>exp_chord_preinit_stemdrop2_drumaux_basslowflux&#10;best_downbeat_f1=0.4536&#10;completed_at~2026-03-14 13:26:46 UTC</title>
<rect x="1459.8" y="145.9" width="24" height="204.1" fill="#8fb8de" opacity="0.85"/>
<circle cx="1471.8" cy="145.9" r="3.5" fill="#1f5f99"/>
<text x="1471.8" y="368.0" text-anchor="middle" font-size="11" fill="#425466">25</text>
<text x="1467.8" y="382.0" transform="rotate(60 1467.8,382.0)" font-size="11" fill="#425466">exp_chord_preinit_stemdrop2_drumaux_basslowflux</text>
</g>
<g>
<title>exp_chord_preinit_stemdrop2_drumaux_bassharmonic&#10;best_downbeat_f1=0.4406&#10;completed_at~2026-03-14 14:46:30 UTC</title>
<rect x="1518.1" y="156.3" width="24" height="193.7" fill="#8fb8de" opacity="0.85"/>
<circle cx="1530.1" cy="156.3" r="3.5" fill="#1f5f99"/>
<text x="1530.1" y="368.0" text-anchor="middle" font-size="11" fill="#425466">26</text>
<text x="1526.1" y="382.0" transform="rotate(60 1526.1,382.0)" font-size="11" fill="#425466">exp_chord_preinit_stemdrop2_drumaux_bassharmonic</text>
</g>
<g>
<title>exp_chord_preinit_stemdrop2_drumaux_pianoaux&#10;best_downbeat_f1=0.4440&#10;completed_at~2026-03-14 16:06:07 UTC</title>
<rect x="1576.5" y="153.6" width="24" height="196.4" fill="#8fb8de" opacity="0.85"/>
<circle cx="1588.5" cy="153.6" r="3.5" fill="#1f5f99"/>
<text x="1588.5" y="368.0" text-anchor="middle" font-size="11" fill="#425466">27</text>
<text x="1584.5" y="382.0" transform="rotate(60 1584.5,382.0)" font-size="11" fill="#425466">exp_chord_preinit_stemdrop2_drumaux_pianoaux</text>
</g>
<g>
<title>exp_chord_preinit_stemdrop2_drumaux_highfreq&#10;best_downbeat_f1=0.4642&#10;completed_at~2026-03-15 03:28:47 UTC</title>
<rect x="1634.8" y="137.3" width="24" height="212.7" fill="#8fb8de" opacity="0.85"/>
<circle cx="1646.8" cy="137.3" r="3.5" fill="#1f5f99"/>
<text x="1646.8" y="368.0" text-anchor="middle" font-size="11" fill="#425466">28</text>
<text x="1642.8" y="382.0" transform="rotate(60 1642.8,382.0)" font-size="11" fill="#425466">exp_chord_preinit_stemdrop2_drumaux_highfreq</text>
</g>
<g>
<title>exp_chord_preinit_stemdrop2_drumaux_highfreq_repeatssm&#10;best_downbeat_f1=0.4705&#10;completed_at~2026-03-15 05:34:47 UTC</title>
<rect x="1693.1" y="132.2" width="24" height="217.8" fill="#8fb8de" opacity="0.85"/>
<circle cx="1705.1" cy="132.2" r="3.5" fill="#1f5f99"/>
<text x="1705.1" y="368.0" text-anchor="middle" font-size="11" fill="#425466">29</text>
<text x="1701.1" y="382.0" transform="rotate(60 1701.1,382.0)" font-size="11" fill="#425466">exp_chord_preinit_stemdrop2_drumaux_highfreq_repeatssm</text>
</g>
<g>
<title>exp_chord_preinit_stemdrop2_drumaux_highfreq_repeatssm_bar&#10;best_downbeat_f1=0.4594&#10;completed_at~2026-03-15 07:42:39 UTC</title>
<rect x="1751.4" y="141.2" width="24" height="208.8" fill="#8fb8de" opacity="0.85"/>
<circle cx="1763.4" cy="141.2" r="3.5" fill="#1f5f99"/>
<text x="1763.4" y="368.0" text-anchor="middle" font-size="11" fill="#425466">30</text>
<text x="1759.4" y="382.0" transform="rotate(60 1759.4,382.0)" font-size="11" fill="#425466">exp_chord_preinit_stemdrop2_drumaux_highfreq_repeatssm_bar</text>
</g>
<g>
<title>exp_chord_preinit_stemdrop2_drumaux_highfreq_repeatssm_timestretch_pm10&#10;best_downbeat_f1=0.3784&#10;completed_at~2026-03-15 10:06:35 UTC</title>
<rect x="1809.8" y="206.4" width="24" height="143.6" fill="#8fb8de" opacity="0.85"/>
<circle cx="1821.8" cy="206.4" r="3.5" fill="#1f5f99"/>
<text x="1821.8" y="368.0" text-anchor="middle" font-size="11" fill="#425466">31</text>
<text x="1817.8" y="382.0" transform="rotate(60 1817.8,382.0)" font-size="11" fill="#425466">exp_chord_preinit_stemdrop2_drumaux_highfreq_repeatssm_timestretch_pm10</text>
</g>
<g>
<title>exp_meter_from_rhythm_head&#10;best_downbeat_f1=0.4464&#10;completed_at~2026-03-15 14:50:16 UTC</title>
<rect x="1868.1" y="151.6" width="24" height="198.4" fill="#8fb8de" opacity="0.85"/>
<circle cx="1880.1" cy="151.6" r="3.5" fill="#1f5f99"/>
<text x="1880.1" y="368.0" text-anchor="middle" font-size="11" fill="#425466">32</text>
<text x="1876.1" y="382.0" transform="rotate(60 1876.1,382.0)" font-size="11" fill="#425466">exp_meter_from_rhythm_head</text>
</g>
<g>
<title>exp_meter_from_rhythm_bilstm_w0_05&#10;best_downbeat_f1=0.4431&#10;completed_at~2026-03-16 14:10:41 UTC</title>
<rect x="1926.4" y="154.3" width="24" height="195.7" fill="#8fb8de" opacity="0.85"/>
<circle cx="1938.4" cy="154.3" r="3.5" fill="#1f5f99"/>
<text x="1938.4" y="368.0" text-anchor="middle" font-size="11" fill="#425466">33</text>
<text x="1934.4" y="382.0" transform="rotate(60 1934.4,382.0)" font-size="11" fill="#425466">exp_meter_from_rhythm_bilstm_w0_05</text>
</g>
<g>
<title>exp_meter_from_rhythm_bilstm_w0_05_balanced&#10;best_downbeat_f1=0.4338&#10;completed_at~2026-03-16 15:33:40 UTC</title>
<rect x="1984.7" y="161.8" width="24" height="188.2" fill="#8fb8de" opacity="0.85"/>
<circle cx="1996.7" cy="161.8" r="3.5" fill="#1f5f99"/>
<text x="1996.7" y="368.0" text-anchor="middle" font-size="11" fill="#425466">34</text>
<text x="1992.7" y="382.0" transform="rotate(60 1992.7,382.0)" font-size="11" fill="#425466">exp_meter_from_rhythm_bilstm_w0_05_balanced</text>
</g>
<g>
<title>exp_meter_from_rhythm_bilstm_w0_05_downbeatw1_5&#10;best_downbeat_f1=0.4502&#10;completed_at~2026-03-16 17:00:22 UTC</title>
<rect x="2043.1" y="148.6" width="24" height="201.4" fill="#8fb8de" opacity="0.85"/>
<circle cx="2055.1" cy="148.6" r="3.5" fill="#1f5f99"/>
<text x="2055.1" y="368.0" text-anchor="middle" font-size="11" fill="#425466">35</text>
<text x="2051.1" y="382.0" transform="rotate(60 2051.1,382.0)" font-size="11" fill="#425466">exp_meter_from_rhythm_bilstm_w0_05_downbeatw1_5</text>
</g>
<g>
<title>exp_meter_from_rhythm_hardpred_w0_01&#10;best_downbeat_f1=0.4463&#10;completed_at~2026-03-17 02:45:02 UTC</title>
<rect x="2101.4" y="151.8" width="24" height="198.2" fill="#8fb8de" opacity="0.85"/>
<circle cx="2113.4" cy="151.8" r="3.5" fill="#1f5f99"/>
<text x="2113.4" y="368.0" text-anchor="middle" font-size="11" fill="#425466">36</text>
<text x="2109.4" y="382.0" transform="rotate(60 2109.4,382.0)" font-size="11" fill="#425466">exp_meter_from_rhythm_hardpred_w0_01</text>
</g>
<g>
<title>from_ssl_pretrain&#10;best_downbeat_f1=0.3605&#10;completed_at~2026-03-18 01:44:50 UTC</title>
<rect x="2159.7" y="220.8" width="24" height="129.2" fill="#8fb8de" opacity="0.85"/>
<circle cx="2171.7" cy="220.8" r="3.5" fill="#1f5f99"/>
<text x="2171.7" y="368.0" text-anchor="middle" font-size="11" fill="#425466">37</text>
<text x="2167.7" y="382.0" transform="rotate(60 2167.7,382.0)" font-size="11" fill="#425466">from_ssl_pretrain</text>
</g>
<g>
<title>from_ssl_plp_with_chord_boundary&#10;best_downbeat_f1=0.4894&#10;completed_at~2026-03-19 02:41:09 UTC</title>
<rect x="2218.0" y="117.1" width="24" height="232.9" fill="#8fb8de" opacity="0.85"/>
<circle cx="2230.0" cy="117.1" r="3.5" fill="#1f5f99"/>
<text x="2230.0" y="368.0" text-anchor="middle" font-size="11" fill="#425466">38</text>
<text x="2226.0" y="382.0" transform="rotate(60 2226.0,382.0)" font-size="11" fill="#425466">from_ssl_plp_with_chord_boundary</text>
</g>
<g>
<title>from_ssl_drum_constrastive_pretrain&#10;best_downbeat_f1=0.4975&#10;completed_at~2026-03-20 13:06:27 UTC</title>
<rect x="2276.4" y="110.5" width="24" height="239.5" fill="#8fb8de" opacity="0.85"/>
<circle cx="2288.4" cy="110.5" r="3.5" fill="#1f5f99"/>
<text x="2288.4" y="368.0" text-anchor="middle" font-size="11" fill="#425466">39</text>
<text x="2284.4" y="382.0" transform="rotate(60 2284.4,382.0)" font-size="11" fill="#425466">from_ssl_drum_constrastive_pretrain</text>
</g>
<g>
<title>from_ssl_no_drum_constrastive_pretrain&#10;best_downbeat_f1=0.5093&#10;completed_at~2026-03-21 03:27:34 UTC</title>
<rect x="2334.7" y="101.0" width="24" height="249.0" fill="#8fb8de" opacity="0.85"/>
<circle cx="2346.7" cy="101.0" r="3.5" fill="#1f5f99"/>
<text x="2346.7" y="368.0" text-anchor="middle" font-size="11" fill="#425466">40</text>
<text x="2342.7" y="382.0" transform="rotate(60 2342.7,382.0)" font-size="11" fill="#425466">from_ssl_no_drum_constrastive_pretrain</text>
</g>
<g>
<title>from_ssl_pretrain_harmony_onset&#10;best_downbeat_f1=0.4690&#10;completed_at~2026-03-21 09:52:48 UTC</title>
<rect x="2393.0" y="133.5" width="24" height="216.5" fill="#8fb8de" opacity="0.85"/>
<circle cx="2405.0" cy="133.5" r="3.5" fill="#1f5f99"/>
<text x="2405.0" y="368.0" text-anchor="middle" font-size="11" fill="#425466">41</text>
<text x="2401.0" y="382.0" transform="rotate(60 2401.0,382.0)" font-size="11" fill="#425466">from_ssl_pretrain_harmony_onset</text>
</g>
<g>
<title>beat_transcription_hop512&#10;best_downbeat_f1=0.5737&#10;completed_at~2026-03-21 11:38:34 UTC</title>
<rect x="2451.3" y="49.2" width="24" height="300.8" fill="#8fb8de" opacity="0.85"/>
<circle cx="2463.3" cy="49.2" r="3.5" fill="#1f5f99"/>
<text x="2463.3" y="368.0" text-anchor="middle" font-size="11" fill="#425466">42</text>
<text x="2459.3" y="382.0" transform="rotate(60 2459.3,382.0)" font-size="11" fill="#425466">beat_transcription_hop512</text>
</g>
<g>
<title>beat_transcription_hop512_pretrain&#10;best_downbeat_f1=0.5471&#10;completed_at~2026-03-22 01:33:56 UTC</title>
<rect x="2509.7" y="70.5" width="24" height="279.5" fill="#8fb8de" opacity="0.85"/>
<circle cx="2521.7" cy="70.5" r="3.5" fill="#1f5f99"/>
<text x="2521.7" y="368.0" text-anchor="middle" font-size="11" fill="#425466">43</text>
<text x="2517.7" y="382.0" transform="rotate(60 2517.7,382.0)" font-size="11" fill="#425466">beat_transcription_hop512_pretrain</text>
</g>
<g>
<title>beat_transcription_with_boundary&#10;best_downbeat_f1=0.5672&#10;completed_at~2026-03-22 06:10:09 UTC</title>
<rect x="2568.0" y="54.4" width="24" height="295.6" fill="#8fb8de" opacity="0.85"/>
<circle cx="2580.0" cy="54.4" r="3.5" fill="#1f5f99"/>
<text x="2580.0" y="368.0" text-anchor="middle" font-size="11" fill="#425466">44</text>
<text x="2576.0" y="382.0" transform="rotate(60 2576.0,382.0)" font-size="11" fill="#425466">beat_transcription_with_boundary</text>
</g>
<path d="M 72.0,258.1 L 130.3,239.7 L 188.7,239.7 L 247.0,228.6 L 305.3,228.6 L 363.6,196.8 L 422.0,196.8 L 480.3,196.8 L 538.6,196.8 L 596.9,196.8 L 655.3,196.8 L 713.6,196.8 L 771.9,196.8 L 830.2,196.8 L 888.6,196.8 L 946.9,196.8 L 1005.2,196.8 L 1063.5,196.8 L 1121.9,151.1 L 1180.2,147.2 L 1238.5,147.2 L 1296.8,147.2 L 1355.2,140.8 L 1413.5,140.8 L 1471.8,140.8 L 1530.1,140.8 L 1588.5,140.8 L 1646.8,137.3 L 1705.1,132.2 L 1763.4,132.2 L 1821.8,132.2 L 1880.1,132.2 L 1938.4,132.2 L 1996.7,132.2 L 2055.1,132.2 L 2113.4,132.2 L 2171.7,132.2 L 2230.0,117.1 L 2288.4,110.5 L 2346.7,101.0 L 2405.0,101.0 L 2463.3,49.2 L 2521.7,49.2 L 2580.0,49.2" fill="none" stroke="#d94841" stroke-width="2.5"/>
<circle cx="72" cy="490" r="5" fill="#8fb8de"/>
<text x="84" y="494" font-size="12" fill="#425466">best_downbeat_f1 per run</text>
<line x1="242" y1="490" x2="266" y2="490" stroke="#d94841" stroke-width="2.5"/>
<text x="274" y="494" font-size="12" fill="#425466">running best</text>
</svg>