<svg xmlns="http://www.w3.org/2000/svg" width="2380" height="520" viewBox="0 0 2380 520">
<rect width="100%" height="100%" fill="#f7f9fc"/>
<text x="24" y="22" font-size="18" font-weight="700" fill="#15212b">Best Downbeat F1 Progress</text>
<text x="24" y="42" font-size="12" fill="#425466">x-axis is estimated completion order from history/config file timestamps.</text>
<line x1="72" y1="350.0" x2="2356" y2="350.0" stroke="#d7dce2" stroke-width="1"/>
<text x="62" y="354.0" text-anchor="end" font-size="12" fill="#425466">0.200</text>
<line x1="72" y1="285.6" x2="2356" y2="285.6" stroke="#d7dce2" stroke-width="1"/>
<text x="62" y="289.6" text-anchor="end" font-size="12" fill="#425466">0.270</text>
<line x1="72" y1="221.2" x2="2356" y2="221.2" stroke="#d7dce2" stroke-width="1"/>
<text x="62" y="225.2" text-anchor="end" font-size="12" fill="#425466">0.340</text>
<line x1="72" y1="156.8" x2="2356" y2="156.8" stroke="#d7dce2" stroke-width="1"/>
<text x="62" y="160.8" text-anchor="end" font-size="12" fill="#425466">0.410</text>
<line x1="72" y1="92.4" x2="2356" y2="92.4" stroke="#d7dce2" stroke-width="1"/>
<text x="62" y="96.4" text-anchor="end" font-size="12" fill="#425466">0.480</text>
<line x1="72" y1="28.0" x2="2356" y2="28.0" stroke="#d7dce2" stroke-width="1"/>
<text x="62" y="32.0" text-anchor="end" font-size="12" fill="#425466">0.550</text>
<line x1="72" y1="28" x2="72" y2="350" stroke="#425466" stroke-width="1.2"/>
<line x1="72" y1="350" x2="2356" y2="350" stroke="#425466" stroke-width="1.2"/>
<g>
<title>beat_transcription&#10;best_downbeat_f1=0.3141&#10;completed_at~2026-03-12 16:43:41 UTC</title>
<rect x="60.0" y="245.0" width="24" height="105.0" fill="#8fb8de" opacity="0.85"/>
<circle cx="72.0" cy="245.0" r="3.5" fill="#1f5f99"/>
<text x="72.0" y="368.0" text-anchor="middle" font-size="11" fill="#425466">1</text>
<text x="68.0" y="382.0" transform="rotate(60 68.0,382.0)" font-size="11" fill="#425466">beat_transcription</text>
</g>
<g>
<title>exp_beat_plus_downbeat_logits&#10;best_downbeat_f1=0.3371&#10;completed_at~2026-03-13 01:30:16 UTC</title>
<rect x="118.6" y="223.9" width="24" height="126.1" fill="#8fb8de" opacity="0.85"/>
<circle cx="130.6" cy="223.9" r="3.5" fill="#1f5f99"/>
<text x="130.6" y="368.0" text-anchor="middle" font-size="11" fill="#425466">2</text>
<text x="126.6" y="382.0" transform="rotate(60 126.6,382.0)" font-size="11" fill="#425466">exp_beat_plus_downbeat_logits</text>
</g>
<g>
<title>exp_meter_classification&#10;best_downbeat_f1=0.2561&#10;completed_at~2026-03-13 02:52:15 UTC</title>
<rect x="177.1" y="298.4" width="24" height="51.6" fill="#8fb8de" opacity="0.85"/>
<circle cx="189.1" cy="298.4" r="3.5" fill="#1f5f99"/>
<text x="189.1" y="368.0" text-anchor="middle" font-size="11" fill="#425466">3</text>
<text x="185.1" y="382.0" transform="rotate(60 185.1,382.0)" font-size="11" fill="#425466">exp_meter_classification</text>
</g>
<g>
<title>exp_meter_classification_w0_1&#10;best_downbeat_f1=0.3508&#10;completed_at~2026-03-13 04:05:38 UTC</title>
<rect x="235.7" y="211.3" width="24" height="138.7" fill="#8fb8de" opacity="0.85"/>
<circle cx="247.7" cy="211.3" r="3.5" fill="#1f5f99"/>
<text x="247.7" y="368.0" text-anchor="middle" font-size="11" fill="#425466">4</text>
<text x="243.7" y="382.0" transform="rotate(60 243.7,382.0)" font-size="11" fill="#425466">exp_meter_classification_w0_1</text>
</g>
<g>
<title>exp_meter_classification_w0_3&#10;best_downbeat_f1=0.3249&#10;completed_at~2026-03-13 05:19:21 UTC</title>
<rect x="294.3" y="235.1" width="24" height="114.9" fill="#8fb8de" opacity="0.85"/>
<circle cx="306.3" cy="235.1" r="3.5" fill="#1f5f99"/>
<text x="306.3" y="368.0" text-anchor="middle" font-size="11" fill="#425466">5</text>
<text x="302.3" y="382.0" transform="rotate(60 302.3,382.0)" font-size="11" fill="#425466">exp_meter_classification_w0_3</text>
</g>
<g>
<title>exp_meter_classification_w0_0_5&#10;best_downbeat_f1=0.3903&#10;completed_at~2026-03-13 06:28:31 UTC</title>
<rect x="352.8" y="174.9" width="24" height="175.1" fill="#8fb8de" opacity="0.85"/>
<circle cx="364.8" cy="174.9" r="3.5" fill="#1f5f99"/>
<text x="364.8" y="368.0" text-anchor="middle" font-size="11" fill="#425466">6</text>
<text x="360.8" y="382.0" transform="rotate(60 360.8,382.0)" font-size="11" fill="#425466">exp_meter_classification_w0_0_5</text>
</g>
<g>
<title>exp_meter_numerator_w0_05&#10;best_downbeat_f1=0.3398&#10;completed_at~2026-03-13 07:51:48 UTC</title>
<rect x="411.4" y="221.4" width="24" height="128.6" fill="#8fb8de" opacity="0.85"/>
<circle cx="423.4" cy="221.4" r="3.5" fill="#1f5f99"/>
<text x="423.4" y="368.0" text-anchor="middle" font-size="11" fill="#425466">7</text>
<text x="419.4" y="382.0" transform="rotate(60 419.4,382.0)" font-size="11" fill="#425466">exp_meter_numerator_w0_05</text>
</g>
<g>
<title>exp_meter_context_lowres_w0_05&#10;best_downbeat_f1=0.3382&#10;completed_at~2026-03-13 09:11:30 UTC</title>
<rect x="469.9" y="222.8" width="24" height="127.2" fill="#8fb8de" opacity="0.85"/>
<circle cx="481.9" cy="222.8" r="3.5" fill="#1f5f99"/>
<text x="481.9" y="368.0" text-anchor="middle" font-size="11" fill="#425466">8</text>
<text x="477.9" y="382.0" transform="rotate(60 477.9,382.0)" font-size="11" fill="#425466">exp_meter_context_lowres_w0_05</text>
</g>
<g>
<title>exp_meter_downbeat_conditioning_w0_05&#10;best_downbeat_f1=0.3248&#10;completed_at~2026-03-13 11:46:17 UTC</title>
<rect x="528.5" y="235.1" width="24" height="114.9" fill="#8fb8de" opacity="0.85"/>
<circle cx="540.5" cy="235.1" r="3.5" fill="#1f5f99"/>
<text x="540.5" y="368.0" text-anchor="middle" font-size="11" fill="#425466">9</text>
<text x="536.5" y="382.0" transform="rotate(60 536.5,382.0)" font-size="11" fill="#425466">exp_meter_downbeat_conditioning_w0_05</text>
</g>
<g>
<title>exp_meter_classification_w0_0_5_beatpw10&#10;best_downbeat_f1=0.3599&#10;completed_at~2026-03-13 13:54:50 UTC</title>
<rect x="587.1" y="202.9" width="24" height="147.1" fill="#8fb8de" opacity="0.85"/>
<circle cx="599.1" cy="202.9" r="3.5" fill="#1f5f99"/>
<text x="599.1" y="368.0" text-anchor="middle" font-size="11" fill="#425466">10</text>
<text x="595.1" y="382.0" transform="rotate(60 595.1,382.0)" font-size="11" fill="#425466">exp_meter_classification_w0_0_5_beatpw10</text>
</g>
<g>
<title>exp_meter_classification_w0_0_5_beatpw7_5&#10;best_downbeat_f1=0.3493&#10;completed_at~2026-03-13 15:04:31 UTC</title>
<rect x="645.6" y="212.6" width="24" height="137.4" fill="#8fb8de" opacity="0.85"/>
<circle cx="657.6" cy="212.6" r="3.5" fill="#1f5f99"/>
<text x="657.6" y="368.0" text-anchor="middle" font-size="11" fill="#425466">11</text>
<text x="653.6" y="382.0" transform="rotate(60 653.6,382.0)" font-size="11" fill="#425466">exp_meter_classification_w0_0_5_beatpw7_5</text>
</g>
<g>
<title>exp_meter_classification_w0_0_5_specaug_f0_02_t0_00&#10;best_downbeat_f1=0.3504&#10;completed_at~2026-03-13 16:51:27 UTC</title>
<rect x="704.2" y="211.6" width="24" height="138.4" fill="#8fb8de" opacity="0.85"/>
<circle cx="716.2" cy="211.6" r="3.5" fill="#1f5f99"/>
<text x="716.2" y="368.0" text-anchor="middle" font-size="11" fill="#425466">12</text>
<text x="712.2" y="382.0" transform="rotate(60 712.2,382.0)" font-size="11" fill="#425466">exp_meter_classification_w0_0_5_specaug_f0_02_t0_00</text>
</g>
<g>
<title>exp_meter_classification_w0_0_5_specaug_f0_05_t0_00&#10;best_downbeat_f1=0.3146&#10;completed_at~2026-03-13 17:55:49 UTC</title>
<rect x="762.8" y="244.6" width="24" height="105.4" fill="#8fb8de" opacity="0.85"/>
<circle cx="774.8" cy="244.6" r="3.5" fill="#1f5f99"/>
<text x="774.8" y="368.0" text-anchor="middle" font-size="11" fill="#425466">13</text>
<text x="770.8" y="382.0" transform="rotate(60 770.8,382.0)" font-size="11" fill="#425466">exp_meter_classification_w0_0_5_specaug_f0_05_t0_00</text>
</g>
<g>
<title>exp_meter_classification_w0_0_5_specaug_f0_00_t0_05&#10;best_downbeat_f1=0.3743&#10;completed_at~2026-03-13 19:00:25 UTC</title>
<rect x="821.3" y="189.6" width="24" height="160.4" fill="#8fb8de" opacity="0.85"/>
<circle cx="833.3" cy="189.6" r="3.5" fill="#1f5f99"/>
<text x="833.3" y="368.0" text-anchor="middle" font-size="11" fill="#425466">14</text>
<text x="829.3" y="382.0" transform="rotate(60 829.3,382.0)" font-size="11" fill="#425466">exp_meter_classification_w0_0_5_specaug_f0_00_t0_05</text>
</g>
<g>
<title>exp_meter_classification_w0_0_5_specaug_f0_00_t0_10&#10;best_downbeat_f1=0.3581&#10;completed_at~2026-03-13 20:04:53 UTC</title>
<rect x="879.9" y="204.6" width="24" height="145.4" fill="#8fb8de" opacity="0.85"/>
<circle cx="891.9" cy="204.6" r="3.5" fill="#1f5f99"/>
<text x="891.9" y="368.0" text-anchor="middle" font-size="11" fill="#425466">15</text>
<text x="887.9" y="382.0" transform="rotate(60 887.9,382.0)" font-size="11" fill="#425466">exp_meter_classification_w0_0_5_specaug_f0_00_t0_10</text>
</g>
<g>
<title>exp_meter_classification_w0_0_5_specaug_f0_02_t0_05&#10;best_downbeat_f1=0.3705&#10;completed_at~2026-03-13 21:09:27 UTC</title>
<rect x="938.5" y="193.1" width="24" height="156.9" fill="#8fb8de" opacity="0.85"/>
<circle cx="950.5" cy="193.1" r="3.5" fill="#1f5f99"/>
<text x="950.5" y="368.0" text-anchor="middle" font-size="11" fill="#425466">16</text>
<text x="946.5" y="382.0" transform="rotate(60 946.5,382.0)" font-size="11" fill="#425466">exp_meter_classification_w0_0_5_specaug_f0_02_t0_05</text>
</g>
<g>
<title>exp_meter_classification_w0_0_5_specaug_f0_05_t0_10&#10;best_downbeat_f1=0.3604&#10;completed_at~2026-03-13 22:13:57 UTC</title>
<rect x="997.0" y="202.5" width="24" height="147.5" fill="#8fb8de" opacity="0.85"/>
<circle cx="1009.0" cy="202.5" r="3.5" fill="#1f5f99"/>
<text x="1009.0" y="368.0" text-anchor="middle" font-size="11" fill="#425466">17</text>
<text x="1005.0" y="382.0" transform="rotate(60 1005.0,382.0)" font-size="11" fill="#425466">exp_meter_classification_w0_0_5_specaug_f0_05_t0_10</text>
</g>
<g>
<title>exp_time_stretch_pm50&#10;best_downbeat_f1=0.3476&#10;completed_at~2026-03-14 02:53:04 UTC</title>
<rect x="1055.6" y="214.2" width="24" height="135.8" fill="#8fb8de" opacity="0.85"/>
<circle cx="1067.6" cy="214.2" r="3.5" fill="#1f5f99"/>
<text x="1067.6" y="368.0" text-anchor="middle" font-size="11" fill="#425466">18</text>
<text x="1063.6" y="382.0" transform="rotate(60 1063.6,382.0)" font-size="11" fill="#425466">exp_time_stretch_pm50</text>
</g>
<g>
<title>exp_chord_preinit_backbone&#10;best_downbeat_f1=0.4471&#10;completed_at~2026-03-14 04:28:02 UTC</title>
<rect x="1114.2" y="122.7" width="24" height="227.3" fill="#8fb8de" opacity="0.85"/>
<circle cx="1126.2" cy="122.7" r="3.5" fill="#1f5f99"/>
<text x="1126.2" y="368.0" text-anchor="middle" font-size="11" fill="#425466">19</text>
<text x="1122.2" y="382.0" transform="rotate(60 1122.2,382.0)" font-size="11" fill="#425466">exp_chord_preinit_backbone</text>
</g>
<g>
<title>exp_chord_preinit_stemdrop2&#10;best_downbeat_f1=0.4519&#10;completed_at~2026-03-14 06:27:47 UTC</title>
<rect x="1172.7" y="118.3" width="24" height="231.7" fill="#8fb8de" opacity="0.85"/>
<circle cx="1184.7" cy="118.3" r="3.5" fill="#1f5f99"/>
<text x="1184.7" y="368.0" text-anchor="middle" font-size="11" fill="#425466">20</text>
<text x="1180.7" y="382.0" transform="rotate(60 1180.7,382.0)" font-size="11" fill="#425466">exp_chord_preinit_stemdrop2</text>
</g>
<g>
<title>exp_chord_preinit_stemdrop2_phase&#10;best_downbeat_f1=0.4409&#10;completed_at~2026-03-14 07:54:13 UTC</title>
<rect x="1231.3" y="128.3" width="24" height="221.7" fill="#8fb8de" opacity="0.85"/>
<circle cx="1243.3" cy="128.3" r="3.5" fill="#1f5f99"/>
<text x="1243.3" y="368.0" text-anchor="middle" font-size="11" fill="#425466">21</text>
<text x="1239.3" y="382.0" transform="rotate(60 1239.3,382.0)" font-size="11" fill="#425466">exp_chord_preinit_stemdrop2_phase</text>
</g>
<g>
<title>exp_chord_preinit_stemdrop2_metertau0_5&#10;best_downbeat_f1=0.4401&#10;completed_at~2026-03-14 09:15:33 UTC</title>
<rect x="1289.8" y="129.1" width="24" height="220.9" fill="#8fb8de" opacity="0.85"/>
<circle cx="1301.8" cy="129.1" r="3.5" fill="#1f5f99"/>
<text x="1301.8" y="368.0" text-anchor="middle" font-size="11" fill="#425466">22</text>
<text x="1297.8" y="382.0" transform="rotate(60 1297.8,382.0)" font-size="11" fill="#425466">exp_chord_preinit_stemdrop2_metertau0_5</text>
</g>
<g>
<title>exp_chord_preinit_stemdrop2_drumaux&#10;best_downbeat_f1=0.4598&#10;completed_at~2026-03-14 10:44:21 UTC</title>
<rect x="1348.4" y="111.0" width="24" height="239.0" fill="#8fb8de" opacity="0.85"/>
<circle cx="1360.4" cy="111.0" r="3.5" fill="#1f5f99"/>
<text x="1360.4" y="368.0" text-anchor="middle" font-size="11" fill="#425466">23</text>
<text x="1356.4" y="382.0" transform="rotate(60 1356.4,382.0)" font-size="11" fill="#425466">exp_chord_preinit_stemdrop2_drumaux</text>
</g>
<g>
<title>exp_chord_preinit_stemdrop2_drumaux_bassaux&#10;best_downbeat_f1=0.4442&#10;completed_at~2026-03-14 12:07:52 UTC</title>
<rect x="1407.0" y="125.3" width="24" height="224.7" fill="#8fb8de" opacity="0.85"/>
<circle cx="1419.0" cy="125.3" r="3.5" fill="#1f5f99"/>
<text x="1419.0" y="368.0" text-anchor="middle" font-size="11" fill="#425466">24</text>
<text x="1415.0" y="382.0" transform="rotate(60 1415.0,382.0)" font-size="11" fill="#425466">exp_chord_preinit_stemdrop2_drumaux_bassaux</text>
</g>
<g>
<title>exp_chord_preinit_stemdrop2_drumaux_basslowflux&#10;best_downbeat_f1=0.4536&#10;completed_at~2026-03-14 13:26:46 UTC</title>
<rect x="1465.5" y="116.7" width="24" height="233.3" fill="#8fb8de" opacity="0.85"/>
<circle cx="1477.5" cy="116.7" r="3.5" fill="#1f5f99"/>
<text x="1477.5" y="368.0" text-anchor="middle" font-size="11" fill="#425466">25</text>
<text x="1473.5" y="382.0" transform="rotate(60 1473.5,382.0)" font-size="11" fill="#425466">exp_chord_preinit_stemdrop2_drumaux_basslowflux</text>
</g>
<g>
<title>exp_chord_preinit_stemdrop2_drumaux_bassharmonic&#10;best_downbeat_f1=0.4406&#10;completed_at~2026-03-14 14:46:30 UTC</title>
<rect x="1524.1" y="128.7" width="24" height="221.3" fill="#8fb8de" opacity="0.85"/>
<circle cx="1536.1" cy="128.7" r="3.5" fill="#1f5f99"/>
<text x="1536.1" y="368.0" text-anchor="middle" font-size="11" fill="#425466">26</text>
<text x="1532.1" y="382.0" transform="rotate(60 1532.1,382.0)" font-size="11" fill="#425466">exp_chord_preinit_stemdrop2_drumaux_bassharmonic</text>
</g>
<g>
<title>exp_chord_preinit_stemdrop2_drumaux_pianoaux&#10;best_downbeat_f1=0.4440&#10;completed_at~2026-03-14 16:06:07 UTC</title>
<rect x="1582.7" y="125.5" width="24" height="224.5" fill="#8fb8de" opacity="0.85"/>
<circle cx="1594.7" cy="125.5" r="3.5" fill="#1f5f99"/>
<text x="1594.7" y="368.0" text-anchor="middle" font-size="11" fill="#425466">27</text>
<text x="1590.7" y="382.0" transform="rotate(60 1590.7,382.0)" font-size="11" fill="#425466">exp_chord_preinit_stemdrop2_drumaux_pianoaux</text>
</g>
<g>
<title>exp_chord_preinit_stemdrop2_drumaux_highfreq&#10;best_downbeat_f1=0.4642&#10;completed_at~2026-03-15 03:28:47 UTC</title>
<rect x="1641.2" y="107.0" width="24" height="243.0" fill="#8fb8de" opacity="0.85"/>
<circle cx="1653.2" cy="107.0" r="3.5" fill="#1f5f99"/>
<text x="1653.2" y="368.0" text-anchor="middle" font-size="11" fill="#425466">28</text>
<text x="1649.2" y="382.0" transform="rotate(60 1649.2,382.0)" font-size="11" fill="#425466">exp_chord_preinit_stemdrop2_drumaux_highfreq</text>
</g>
<g>
<title>exp_chord_preinit_stemdrop2_drumaux_highfreq_repeatssm&#10;best_downbeat_f1=0.4705&#10;completed_at~2026-03-15 05:34:47 UTC</title>
<rect x="1699.8" y="101.1" width="24" height="248.9" fill="#8fb8de" opacity="0.85"/>
<circle cx="1711.8" cy="101.1" r="3.5" fill="#1f5f99"/>
<text x="1711.8" y="368.0" text-anchor="middle" font-size="11" fill="#425466">29</text>
<text x="1707.8" y="382.0" transform="rotate(60 1707.8,382.0)" font-size="11" fill="#425466">exp_chord_preinit_stemdrop2_drumaux_highfreq_repeatssm</text>
</g>
<g>
<title>exp_chord_preinit_stemdrop2_drumaux_highfreq_repeatssm_bar&#10;best_downbeat_f1=0.4594&#10;completed_at~2026-03-15 07:42:39 UTC</title>
<rect x="1758.4" y="111.3" width="24" height="238.7" fill="#8fb8de" opacity="0.85"/>
<circle cx="1770.4" cy="111.3" r="3.5" fill="#1f5f99"/>
<text x="1770.4" y="368.0" text-anchor="middle" font-size="11" fill="#425466">30</text>
<text x="1766.4" y="382.0" transform="rotate(60 1766.4,382.0)" font-size="11" fill="#425466">exp_chord_preinit_stemdrop2_drumaux_highfreq_repeatssm_bar</text>
</g>
<g>
<title>exp_chord_preinit_stemdrop2_drumaux_highfreq_repeatssm_timestretch_pm10&#10;best_downbeat_f1=0.3784&#10;completed_at~2026-03-15 10:06:35 UTC</title>
<rect x="1816.9" y="185.8" width="24" height="164.2" fill="#8fb8de" opacity="0.85"/>
<circle cx="1828.9" cy="185.8" r="3.5" fill="#1f5f99"/>
<text x="1828.9" y="368.0" text-anchor="middle" font-size="11" fill="#425466">31</text>
<text x="1824.9" y="382.0" transform="rotate(60 1824.9,382.0)" font-size="11" fill="#425466">exp_chord_preinit_stemdrop2_drumaux_highfreq_repeatssm_timestretch_pm10</text>
</g>
<g>
<title>exp_meter_from_rhythm_head&#10;best_downbeat_f1=0.4464&#10;completed_at~2026-03-15 14:50:16 UTC</title>
<rect x="1875.5" y="123.3" width="24" height="226.7" fill="#8fb8de" opacity="0.85"/>
<circle cx="1887.5" cy="123.3" r="3.5" fill="#1f5f99"/>
<text x="1887.5" y="368.0" text-anchor="middle" font-size="11" fill="#425466">32</text>
<text x="1883.5" y="382.0" transform="rotate(60 1883.5,382.0)" font-size="11" fill="#425466">exp_meter_from_rhythm_head</text>
</g>
<g>
<title>exp_meter_from_rhythm_bilstm_w0_05&#10;best_downbeat_f1=0.4431&#10;completed_at~2026-03-16 14:10:41 UTC</title>
<rect x="1934.1" y="126.3" width="24" height="223.7" fill="#8fb8de" opacity="0.85"/>
<circle cx="1946.1" cy="126.3" r="3.5" fill="#1f5f99"/>
<text x="1946.1" y="368.0" text-anchor="middle" font-size="11" fill="#425466">33</text>
<text x="1942.1" y="382.0" transform="rotate(60 1942.1,382.0)" font-size="11" fill="#425466">exp_meter_from_rhythm_bilstm_w0_05</text>
</g>
<g>
<title>exp_meter_from_rhythm_bilstm_w0_05_balanced&#10;best_downbeat_f1=0.4338&#10;completed_at~2026-03-16 15:33:40 UTC</title>
<rect x="1992.6" y="134.9" width="24" height="215.1" fill="#8fb8de" opacity="0.85"/>
<circle cx="2004.6" cy="134.9" r="3.5" fill="#1f5f99"/>
<text x="2004.6" y="368.0" text-anchor="middle" font-size="11" fill="#425466">34</text>
<text x="2000.6" y="382.0" transform="rotate(60 2000.6,382.0)" font-size="11" fill="#425466">exp_meter_from_rhythm_bilstm_w0_05_balanced</text>
</g>
<g>
<title>exp_meter_from_rhythm_bilstm_w0_05_downbeatw1_5&#10;best_downbeat_f1=0.4502&#10;completed_at~2026-03-16 17:00:22 UTC</title>
<rect x="2051.2" y="119.8" width="24" height="230.2" fill="#8fb8de" opacity="0.85"/>
<circle cx="2063.2" cy="119.8" r="3.5" fill="#1f5f99"/>
<text x="2063.2" y="368.0" text-anchor="middle" font-size="11" fill="#425466">35</text>
<text x="2059.2" y="382.0" transform="rotate(60 2059.2,382.0)" font-size="11" fill="#425466">exp_meter_from_rhythm_bilstm_w0_05_downbeatw1_5</text>
</g>
<g>
<title>exp_meter_from_rhythm_hardpred_w0_01&#10;best_downbeat_f1=0.4463&#10;completed_at~2026-03-17 02:45:02 UTC</title>
<rect x="2109.7" y="123.4" width="24" height="226.6" fill="#8fb8de" opacity="0.85"/>
<circle cx="2121.7" cy="123.4" r="3.5" fill="#1f5f99"/>
<text x="2121.7" y="368.0" text-anchor="middle" font-size="11" fill="#425466">36</text>
<text x="2117.7" y="382.0" transform="rotate(60 2117.7,382.0)" font-size="11" fill="#425466">exp_meter_from_rhythm_hardpred_w0_01</text>
</g>
<g>
<title>from_ssl_pretrain&#10;best_downbeat_f1=0.3605&#10;completed_at~2026-03-18 01:44:50 UTC</title>
<rect x="2168.3" y="202.3" width="24" height="147.7" fill="#8fb8de" opacity="0.85"/>
<circle cx="2180.3" cy="202.3" r="3.5" fill="#1f5f99"/>
<text x="2180.3" y="368.0" text-anchor="middle" font-size="11" fill="#425466">37</text>
<text x="2176.3" y="382.0" transform="rotate(60 2176.3,382.0)" font-size="11" fill="#425466">from_ssl_pretrain</text>
</g>
<g>
<title>from_ssl_plp_with_chord_boundary&#10;best_downbeat_f1=0.4894&#10;completed_at~2026-03-19 02:41:09 UTC</title>
<rect x="2226.9" y="83.8" width="24" height="266.2" fill="#8fb8de" opacity="0.85"/>
<circle cx="2238.9" cy="83.8" r="3.5" fill="#1f5f99"/>
<text x="2238.9" y="368.0" text-anchor="middle" font-size="11" fill="#425466">38</text>
<text x="2234.9" y="382.0" transform="rotate(60 2234.9,382.0)" font-size="11" fill="#425466">from_ssl_plp_with_chord_boundary</text>
</g>
<g>
<title>from_ssl_drum_constrastive_pretrain&#10;best_downbeat_f1=0.4975&#10;completed_at~2026-03-20 13:06:27 UTC</title>
<rect x="2285.4" y="76.3" width="24" height="273.7" fill="#8fb8de" opacity="0.85"/>
<circle cx="2297.4" cy="76.3" r="3.5" fill="#1f5f99"/>
<text x="2297.4" y="368.0" text-anchor="middle" font-size="11" fill="#425466">39</text>
<text x="2293.4" y="382.0" transform="rotate(60 2293.4,382.0)" font-size="11" fill="#425466">from_ssl_drum_constrastive_pretrain</text>
</g>
<g>
<title>from_ssl_no_drum_constrastive_pretrain&#10;best_downbeat_f1=0.5093&#10;completed_at~2026-03-21 03:27:34 UTC</title>
<rect x="2344.0" y="65.4" width="24" height="284.6" fill="#8fb8de" opacity="0.85"/>
<circle cx="2356.0" cy="65.4" r="3.5" fill="#1f5f99"/>
<text x="2356.0" y="368.0" text-anchor="middle" font-size="11" fill="#425466">40</text>
<text x="2352.0" y="382.0" transform="rotate(60 2352.0,382.0)" font-size="11" fill="#425466">from_ssl_no_drum_constrastive_pretrain</text>
</g>
<path d="M 72.0,245.0 L 130.6,223.9 L 189.1,223.9 L 247.7,211.3 L 306.3,211.3 L 364.8,174.9 L 423.4,174.9 L 481.9,174.9 L 540.5,174.9 L 599.1,174.9 L 657.6,174.9 L 716.2,174.9 L 774.8,174.9 L 833.3,174.9 L 891.9,174.9 L 950.5,174.9 L 1009.0,174.9 L 1067.6,174.9 L 1126.2,122.7 L 1184.7,118.3 L 1243.3,118.3 L 1301.8,118.3 L 1360.4,111.0 L 1419.0,111.0 L 1477.5,111.0 L 1536.1,111.0 L 1594.7,111.0 L 1653.2,107.0 L 1711.8,101.1 L 1770.4,101.1 L 1828.9,101.1 L 1887.5,101.1 L 1946.1,101.1 L 2004.6,101.1 L 2063.2,101.1 L 2121.7,101.1 L 2180.3,101.1 L 2238.9,83.8 L 2297.4,76.3 L 2356.0,65.4" fill="none" stroke="#d94841" stroke-width="2.5"/>
<circle cx="72" cy="490" r="5" fill="#8fb8de"/>
<text x="84" y="494" font-size="12" fill="#425466">best_downbeat_f1 per run</text>
<line x1="242" y1="490" x2="266" y2="490" stroke="#d94841" stroke-width="2.5"/>
<text x="274" y="494" font-size="12" fill="#425466">running best</text>
</svg>