<svg xmlns="http://www.w3.org/2000/svg" width="2492" height="520" viewBox="0 0 2492 520">
<rect width="100%" height="100%" fill="#f7f9fc"/>
<text x="24" y="22" font-size="18" font-weight="700" fill="#15212b">Best Downbeat F1 Progress</text>
<text x="24" y="42" font-size="12" fill="#425466">x-axis is estimated completion order from history/config file timestamps.</text>
<line x1="72" y1="350.0" x2="2468" y2="350.0" stroke="#d7dce2" stroke-width="1"/>
<text x="62" y="354.0" text-anchor="end" font-size="12" fill="#425466">0.200</text>
<line x1="72" y1="285.6" x2="2468" y2="285.6" stroke="#d7dce2" stroke-width="1"/>
<text x="62" y="289.6" text-anchor="end" font-size="12" fill="#425466">0.280</text>
<line x1="72" y1="221.2" x2="2468" y2="221.2" stroke="#d7dce2" stroke-width="1"/>
<text x="62" y="225.2" text-anchor="end" font-size="12" fill="#425466">0.360</text>
<line x1="72" y1="156.8" x2="2468" y2="156.8" stroke="#d7dce2" stroke-width="1"/>
<text x="62" y="160.8" text-anchor="end" font-size="12" fill="#425466">0.440</text>
<line x1="72" y1="92.4" x2="2468" y2="92.4" stroke="#d7dce2" stroke-width="1"/>
<text x="62" y="96.4" text-anchor="end" font-size="12" fill="#425466">0.520</text>
<line x1="72" y1="28.0" x2="2468" y2="28.0" stroke="#d7dce2" stroke-width="1"/>
<text x="62" y="32.0" text-anchor="end" font-size="12" fill="#425466">0.600</text>
<line x1="72" y1="28" x2="72" y2="350" stroke="#425466" stroke-width="1.2"/>
<line x1="72" y1="350" x2="2468" y2="350" stroke="#425466" stroke-width="1.2"/>
<g>
<title>beat_transcription&#10;best_downbeat_f1=0.3141&#10;completed_at~2026-03-12 16:43:41 UTC</title>
<rect x="60.0" y="258.1" width="24" height="91.9" fill="#8fb8de" opacity="0.85"/>
<circle cx="72.0" cy="258.1" r="3.5" fill="#1f5f99"/>
<text x="72.0" y="368.0" text-anchor="middle" font-size="11" fill="#425466">1</text>
<text x="68.0" y="382.0" transform="rotate(60 68.0,382.0)" font-size="11" fill="#425466">beat_transcription</text>
</g>
<g>
<title>exp_beat_plus_downbeat_logits&#10;best_downbeat_f1=0.3371&#10;completed_at~2026-03-13 01:30:16 UTC</title>
<rect x="118.4" y="239.7" width="24" height="110.3" fill="#8fb8de" opacity="0.85"/>
<circle cx="130.4" cy="239.7" r="3.5" fill="#1f5f99"/>
<text x="130.4" y="368.0" text-anchor="middle" font-size="11" fill="#425466">2</text>
<text x="126.4" y="382.0" transform="rotate(60 126.4,382.0)" font-size="11" fill="#425466">exp_beat_plus_downbeat_logits</text>
</g>
<g>
<title>exp_meter_classification&#10;best_downbeat_f1=0.2561&#10;completed_at~2026-03-13 02:52:15 UTC</title>
<rect x="176.9" y="304.9" width="24" height="45.1" fill="#8fb8de" opacity="0.85"/>
<circle cx="188.9" cy="304.9" r="3.5" fill="#1f5f99"/>
<text x="188.9" y="368.0" text-anchor="middle" font-size="11" fill="#425466">3</text>
<text x="184.9" y="382.0" transform="rotate(60 184.9,382.0)" font-size="11" fill="#425466">exp_meter_classification</text>
</g>
<g>
<title>exp_meter_classification_w0_1&#10;best_downbeat_f1=0.3508&#10;completed_at~2026-03-13 04:05:38 UTC</title>
<rect x="235.3" y="228.6" width="24" height="121.4" fill="#8fb8de" opacity="0.85"/>
<circle cx="247.3" cy="228.6" r="3.5" fill="#1f5f99"/>
<text x="247.3" y="368.0" text-anchor="middle" font-size="11" fill="#425466">4</text>
<text x="243.3" y="382.0" transform="rotate(60 243.3,382.0)" font-size="11" fill="#425466">exp_meter_classification_w0_1</text>
</g>
<g>
<title>exp_meter_classification_w0_3&#10;best_downbeat_f1=0.3249&#10;completed_at~2026-03-13 05:19:21 UTC</title>
<rect x="293.8" y="249.5" width="24" height="100.5" fill="#8fb8de" opacity="0.85"/>
<circle cx="305.8" cy="249.5" r="3.5" fill="#1f5f99"/>
<text x="305.8" y="368.0" text-anchor="middle" font-size="11" fill="#425466">5</text>
<text x="301.8" y="382.0" transform="rotate(60 301.8,382.0)" font-size="11" fill="#425466">exp_meter_classification_w0_3</text>
</g>
<g>
<title>exp_meter_classification_w0_0_5&#10;best_downbeat_f1=0.3903&#10;completed_at~2026-03-13 06:28:31 UTC</title>
<rect x="352.2" y="196.8" width="24" height="153.2" fill="#8fb8de" opacity="0.85"/>
<circle cx="364.2" cy="196.8" r="3.5" fill="#1f5f99"/>
<text x="364.2" y="368.0" text-anchor="middle" font-size="11" fill="#425466">6</text>
<text x="360.2" y="382.0" transform="rotate(60 360.2,382.0)" font-size="11" fill="#425466">exp_meter_classification_w0_0_5</text>
</g>
<g>
<title>exp_meter_numerator_w0_05&#10;best_downbeat_f1=0.3398&#10;completed_at~2026-03-13 07:51:48 UTC</title>
<rect x="410.6" y="237.4" width="24" height="112.6" fill="#8fb8de" opacity="0.85"/>
<circle cx="422.6" cy="237.4" r="3.5" fill="#1f5f99"/>
<text x="422.6" y="368.0" text-anchor="middle" font-size="11" fill="#425466">7</text>
<text x="418.6" y="382.0" transform="rotate(60 418.6,382.0)" font-size="11" fill="#425466">exp_meter_numerator_w0_05</text>
</g>
<g>
<title>exp_meter_context_lowres_w0_05&#10;best_downbeat_f1=0.3382&#10;completed_at~2026-03-13 09:11:30 UTC</title>
<rect x="469.1" y="238.7" width="24" height="111.3" fill="#8fb8de" opacity="0.85"/>
<circle cx="481.1" cy="238.7" r="3.5" fill="#1f5f99"/>
<text x="481.1" y="368.0" text-anchor="middle" font-size="11" fill="#425466">8</text>
<text x="477.1" y="382.0" transform="rotate(60 477.1,382.0)" font-size="11" fill="#425466">exp_meter_context_lowres_w0_05</text>
</g>
<g>
<title>exp_meter_downbeat_conditioning_w0_05&#10;best_downbeat_f1=0.3248&#10;completed_at~2026-03-13 11:46:17 UTC</title>
<rect x="527.5" y="249.5" width="24" height="100.5" fill="#8fb8de" opacity="0.85"/>
<circle cx="539.5" cy="249.5" r="3.5" fill="#1f5f99"/>
<text x="539.5" y="368.0" text-anchor="middle" font-size="11" fill="#425466">9</text>
<text x="535.5" y="382.0" transform="rotate(60 535.5,382.0)" font-size="11" fill="#425466">exp_meter_downbeat_conditioning_w0_05</text>
</g>
<g>
<title>exp_meter_classification_w0_0_5_beatpw10&#10;best_downbeat_f1=0.3599&#10;completed_at~2026-03-13 13:54:50 UTC</title>
<rect x="586.0" y="221.3" width="24" height="128.7" fill="#8fb8de" opacity="0.85"/>
<circle cx="598.0" cy="221.3" r="3.5" fill="#1f5f99"/>
<text x="598.0" y="368.0" text-anchor="middle" font-size="11" fill="#425466">10</text>
<text x="594.0" y="382.0" transform="rotate(60 594.0,382.0)" font-size="11" fill="#425466">exp_meter_classification_w0_0_5_beatpw10</text>
</g>
<g>
<title>exp_meter_classification_w0_0_5_beatpw7_5&#10;best_downbeat_f1=0.3493&#10;completed_at~2026-03-13 15:04:31 UTC</title>
<rect x="644.4" y="229.8" width="24" height="120.2" fill="#8fb8de" opacity="0.85"/>
<circle cx="656.4" cy="229.8" r="3.5" fill="#1f5f99"/>
<text x="656.4" y="368.0" text-anchor="middle" font-size="11" fill="#425466">11</text>
<text x="652.4" y="382.0" transform="rotate(60 652.4,382.0)" font-size="11" fill="#425466">exp_meter_classification_w0_0_5_beatpw7_5</text>
</g>
<g>
<title>exp_meter_classification_w0_0_5_specaug_f0_02_t0_00&#10;best_downbeat_f1=0.3504&#10;completed_at~2026-03-13 16:51:27 UTC</title>
<rect x="702.8" y="228.9" width="24" height="121.1" fill="#8fb8de" opacity="0.85"/>
<circle cx="714.8" cy="228.9" r="3.5" fill="#1f5f99"/>
<text x="714.8" y="368.0" text-anchor="middle" font-size="11" fill="#425466">12</text>
<text x="710.8" y="382.0" transform="rotate(60 710.8,382.0)" font-size="11" fill="#425466">exp_meter_classification_w0_0_5_specaug_f0_02_t0_00</text>
</g>
<g>
<title>exp_meter_classification_w0_0_5_specaug_f0_05_t0_00&#10;best_downbeat_f1=0.3146&#10;completed_at~2026-03-13 17:55:49 UTC</title>
<rect x="761.3" y="257.8" width="24" height="92.2" fill="#8fb8de" opacity="0.85"/>
<circle cx="773.3" cy="257.8" r="3.5" fill="#1f5f99"/>
<text x="773.3" y="368.0" text-anchor="middle" font-size="11" fill="#425466">13</text>
<text x="769.3" y="382.0" transform="rotate(60 769.3,382.0)" font-size="11" fill="#425466">exp_meter_classification_w0_0_5_specaug_f0_05_t0_00</text>
</g>
<g>
<title>exp_meter_classification_w0_0_5_specaug_f0_00_t0_05&#10;best_downbeat_f1=0.3743&#10;completed_at~2026-03-13 19:00:25 UTC</title>
<rect x="819.7" y="209.7" width="24" height="140.3" fill="#8fb8de" opacity="0.85"/>
<circle cx="831.7" cy="209.7" r="3.5" fill="#1f5f99"/>
<text x="831.7" y="368.0" text-anchor="middle" font-size="11" fill="#425466">14</text>
<text x="827.7" y="382.0" transform="rotate(60 827.7,382.0)" font-size="11" fill="#425466">exp_meter_classification_w0_0_5_specaug_f0_00_t0_05</text>
</g>
<g>
<title>exp_meter_classification_w0_0_5_specaug_f0_00_t0_10&#10;best_downbeat_f1=0.3581&#10;completed_at~2026-03-13 20:04:53 UTC</title>
<rect x="878.1" y="222.8" width="24" height="127.2" fill="#8fb8de" opacity="0.85"/>
<circle cx="890.1" cy="222.8" r="3.5" fill="#1f5f99"/>
<text x="890.1" y="368.0" text-anchor="middle" font-size="11" fill="#425466">15</text>
<text x="886.1" y="382.0" transform="rotate(60 886.1,382.0)" font-size="11" fill="#425466">exp_meter_classification_w0_0_5_specaug_f0_00_t0_10</text>
</g>
<g>
<title>exp_meter_classification_w0_0_5_specaug_f0_02_t0_05&#10;best_downbeat_f1=0.3705&#10;completed_at~2026-03-13 21:09:27 UTC</title>
<rect x="936.6" y="212.7" width="24" height="137.3" fill="#8fb8de" opacity="0.85"/>
<circle cx="948.6" cy="212.7" r="3.5" fill="#1f5f99"/>
<text x="948.6" y="368.0" text-anchor="middle" font-size="11" fill="#425466">16</text>
<text x="944.6" y="382.0" transform="rotate(60 944.6,382.0)" font-size="11" fill="#425466">exp_meter_classification_w0_0_5_specaug_f0_02_t0_05</text>
</g>
<g>
<title>exp_meter_classification_w0_0_5_specaug_f0_05_t0_10&#10;best_downbeat_f1=0.3604&#10;completed_at~2026-03-13 22:13:57 UTC</title>
<rect x="995.0" y="220.9" width="24" height="129.1" fill="#8fb8de" opacity="0.85"/>
<circle cx="1007.0" cy="220.9" r="3.5" fill="#1f5f99"/>
<text x="1007.0" y="368.0" text-anchor="middle" font-size="11" fill="#425466">17</text>
<text x="1003.0" y="382.0" transform="rotate(60 1003.0,382.0)" font-size="11" fill="#425466">exp_meter_classification_w0_0_5_specaug_f0_05_t0_10</text>
</g>
<g>
<title>exp_time_stretch_pm50&#10;best_downbeat_f1=0.3476&#10;completed_at~2026-03-14 02:53:04 UTC</title>
<rect x="1053.5" y="231.2" width="24" height="118.8" fill="#8fb8de" opacity="0.85"/>
<circle cx="1065.5" cy="231.2" r="3.5" fill="#1f5f99"/>
<text x="1065.5" y="368.0" text-anchor="middle" font-size="11" fill="#425466">18</text>
<text x="1061.5" y="382.0" transform="rotate(60 1061.5,382.0)" font-size="11" fill="#425466">exp_time_stretch_pm50</text>
</g>
<g>
<title>exp_chord_preinit_backbone&#10;best_downbeat_f1=0.4471&#10;completed_at~2026-03-14 04:28:02 UTC</title>
<rect x="1111.9" y="151.1" width="24" height="198.9" fill="#8fb8de" opacity="0.85"/>
<circle cx="1123.9" cy="151.1" r="3.5" fill="#1f5f99"/>
<text x="1123.9" y="368.0" text-anchor="middle" font-size="11" fill="#425466">19</text>
<text x="1119.9" y="382.0" transform="rotate(60 1119.9,382.0)" font-size="11" fill="#425466">exp_chord_preinit_backbone</text>
</g>
<g>
<title>exp_chord_preinit_stemdrop2&#10;best_downbeat_f1=0.4519&#10;completed_at~2026-03-14 06:27:47 UTC</title>
<rect x="1170.3" y="147.2" width="24" height="202.8" fill="#8fb8de" opacity="0.85"/>
<circle cx="1182.3" cy="147.2" r="3.5" fill="#1f5f99"/>
<text x="1182.3" y="368.0" text-anchor="middle" font-size="11" fill="#425466">20</text>
<text x="1178.3" y="382.0" transform="rotate(60 1178.3,382.0)" font-size="11" fill="#425466">exp_chord_preinit_stemdrop2</text>
</g>
<g>
<title>exp_chord_preinit_stemdrop2_phase&#10;best_downbeat_f1=0.4409&#10;completed_at~2026-03-14 07:54:13 UTC</title>
<rect x="1228.8" y="156.1" width="24" height="193.9" fill="#8fb8de" opacity="0.85"/>
<circle cx="1240.8" cy="156.1" r="3.5" fill="#1f5f99"/>
<text x="1240.8" y="368.0" text-anchor="middle" font-size="11" fill="#425466">21</text>
<text x="1236.8" y="382.0" transform="rotate(60 1236.8,382.0)" font-size="11" fill="#425466">exp_chord_preinit_stemdrop2_phase</text>
</g>
<g>
<title>exp_chord_preinit_stemdrop2_metertau0_5&#10;best_downbeat_f1=0.4401&#10;completed_at~2026-03-14 09:15:33 UTC</title>
<rect x="1287.2" y="156.7" width="24" height="193.3" fill="#8fb8de" opacity="0.85"/>
<circle cx="1299.2" cy="156.7" r="3.5" fill="#1f5f99"/>
<text x="1299.2" y="368.0" text-anchor="middle" font-size="11" fill="#425466">22</text>
<text x="1295.2" y="382.0" transform="rotate(60 1295.2,382.0)" font-size="11" fill="#425466">exp_chord_preinit_stemdrop2_metertau0_5</text>
</g>
<g>
<title>exp_chord_preinit_stemdrop2_drumaux&#10;best_downbeat_f1=0.4598&#10;completed_at~2026-03-14 10:44:21 UTC</title>
<rect x="1345.7" y="140.8" width="24" height="209.2" fill="#8fb8de" opacity="0.85"/>
<circle cx="1357.7" cy="140.8" r="3.5" fill="#1f5f99"/>
<text x="1357.7" y="368.0" text-anchor="middle" font-size="11" fill="#425466">23</text>
<text x="1353.7" y="382.0" transform="rotate(60 1353.7,382.0)" font-size="11" fill="#425466">exp_chord_preinit_stemdrop2_drumaux</text>
</g>
<g>
<title>exp_chord_preinit_stemdrop2_drumaux_bassaux&#10;best_downbeat_f1=0.4442&#10;completed_at~2026-03-14 12:07:52 UTC</title>
<rect x="1404.1" y="153.4" width="24" height="196.6" fill="#8fb8de" opacity="0.85"/>
<circle cx="1416.1" cy="153.4" r="3.5" fill="#1f5f99"/>
<text x="1416.1" y="368.0" text-anchor="middle" font-size="11" fill="#425466">24</text>
<text x="1412.1" y="382.0" transform="rotate(60 1412.1,382.0)" font-size="11" fill="#425466">exp_chord_preinit_stemdrop2_drumaux_bassaux</text>
</g>
<g>
<title>exp_chord_preinit_stemdrop2_drumaux_basslowflux&#10;best_downbeat_f1=0.4536&#10;completed_at~2026-03-14 13:26:46 UTC</title>
<rect x="1462.5" y="145.9" width="24" height="204.1" fill="#8fb8de" opacity="0.85"/>
<circle cx="1474.5" cy="145.9" r="3.5" fill="#1f5f99"/>
<text x="1474.5" y="368.0" text-anchor="middle" font-size="11" fill="#425466">25</text>
<text x="1470.5" y="382.0" transform="rotate(60 1470.5,382.0)" font-size="11" fill="#425466">exp_chord_preinit_stemdrop2_drumaux_basslowflux</text>
</g>
<g>
<title>exp_chord_preinit_stemdrop2_drumaux_bassharmonic&#10;best_downbeat_f1=0.4406&#10;completed_at~2026-03-14 14:46:30 UTC</title>
<rect x="1521.0" y="156.3" width="24" height="193.7" fill="#8fb8de" opacity="0.85"/>
<circle cx="1533.0" cy="156.3" r="3.5" fill="#1f5f99"/>
<text x="1533.0" y="368.0" text-anchor="middle" font-size="11" fill="#425466">26</text>
<text x="1529.0" y="382.0" transform="rotate(60 1529.0,382.0)" font-size="11" fill="#425466">exp_chord_preinit_stemdrop2_drumaux_bassharmonic</text>
</g>
<g>
<title>exp_chord_preinit_stemdrop2_drumaux_pianoaux&#10;best_downbeat_f1=0.4440&#10;completed_at~2026-03-14 16:06:07 UTC</title>
<rect x="1579.4" y="153.6" width="24" height="196.4" fill="#8fb8de" opacity="0.85"/>
<circle cx="1591.4" cy="153.6" r="3.5" fill="#1f5f99"/>
<text x="1591.4" y="368.0" text-anchor="middle" font-size="11" fill="#425466">27</text>
<text x="1587.4" y="382.0" transform="rotate(60 1587.4,382.0)" font-size="11" fill="#425466">exp_chord_preinit_stemdrop2_drumaux_pianoaux</text>
</g>
<g>
<title>exp_chord_preinit_stemdrop2_drumaux_highfreq&#10;best_downbeat_f1=0.4642&#10;completed_at~2026-03-15 03:28:47 UTC</title>
<rect x="1637.9" y="137.3" width="24" height="212.7" fill="#8fb8de" opacity="0.85"/>
<circle cx="1649.9" cy="137.3" r="3.5" fill="#1f5f99"/>
<text x="1649.9" y="368.0" text-anchor="middle" font-size="11" fill="#425466">28</text>
<text x="1645.9" y="382.0" transform="rotate(60 1645.9,382.0)" font-size="11" fill="#425466">exp_chord_preinit_stemdrop2_drumaux_highfreq</text>
</g>
<g>
<title>exp_chord_preinit_stemdrop2_drumaux_highfreq_repeatssm&#10;best_downbeat_f1=0.4705&#10;completed_at~2026-03-15 05:34:47 UTC</title>
<rect x="1696.3" y="132.2" width="24" height="217.8" fill="#8fb8de" opacity="0.85"/>
<circle cx="1708.3" cy="132.2" r="3.5" fill="#1f5f99"/>
<text x="1708.3" y="368.0" text-anchor="middle" font-size="11" fill="#425466">29</text>
<text x="1704.3" y="382.0" transform="rotate(60 1704.3,382.0)" font-size="11" fill="#425466">exp_chord_preinit_stemdrop2_drumaux_highfreq_repeatssm</text>
</g>
<g>
<title>exp_chord_preinit_stemdrop2_drumaux_highfreq_repeatssm_bar&#10;best_downbeat_f1=0.4594&#10;completed_at~2026-03-15 07:42:39 UTC</title>
<rect x="1754.7" y="141.2" width="24" height="208.8" fill="#8fb8de" opacity="0.85"/>
<circle cx="1766.7" cy="141.2" r="3.5" fill="#1f5f99"/>
<text x="1766.7" y="368.0" text-anchor="middle" font-size="11" fill="#425466">30</text>
<text x="1762.7" y="382.0" transform="rotate(60 1762.7,382.0)" font-size="11" fill="#425466">exp_chord_preinit_stemdrop2_drumaux_highfreq_repeatssm_bar</text>
</g>
<g>
<title>exp_chord_preinit_stemdrop2_drumaux_highfreq_repeatssm_timestretch_pm10&#10;best_downbeat_f1=0.3784&#10;completed_at~2026-03-15 10:06:35 UTC</title>
<rect x="1813.2" y="206.4" width="24" height="143.6" fill="#8fb8de" opacity="0.85"/>
<circle cx="1825.2" cy="206.4" r="3.5" fill="#1f5f99"/>
<text x="1825.2" y="368.0" text-anchor="middle" font-size="11" fill="#425466">31</text>
<text x="1821.2" y="382.0" transform="rotate(60 1821.2,382.0)" font-size="11" fill="#425466">exp_chord_preinit_stemdrop2_drumaux_highfreq_repeatssm_timestretch_pm10</text>
</g>
<g>
<title>exp_meter_from_rhythm_head&#10;best_downbeat_f1=0.4464&#10;completed_at~2026-03-15 14:50:16 UTC</title>
<rect x="1871.6" y="151.6" width="24" height="198.4" fill="#8fb8de" opacity="0.85"/>
<circle cx="1883.6" cy="151.6" r="3.5" fill="#1f5f99"/>
<text x="1883.6" y="368.0" text-anchor="middle" font-size="11" fill="#425466">32</text>
<text x="1879.6" y="382.0" transform="rotate(60 1879.6,382.0)" font-size="11" fill="#425466">exp_meter_from_rhythm_head</text>
</g>
<g>
<title>exp_meter_from_rhythm_bilstm_w0_05&#10;best_downbeat_f1=0.4431&#10;completed_at~2026-03-16 14:10:41 UTC</title>
<rect x="1930.0" y="154.3" width="24" height="195.7" fill="#8fb8de" opacity="0.85"/>
<circle cx="1942.0" cy="154.3" r="3.5" fill="#1f5f99"/>
<text x="1942.0" y="368.0" text-anchor="middle" font-size="11" fill="#425466">33</text>
<text x="1938.0" y="382.0" transform="rotate(60 1938.0,382.0)" font-size="11" fill="#425466">exp_meter_from_rhythm_bilstm_w0_05</text>
</g>
<g>
<title>exp_meter_from_rhythm_bilstm_w0_05_balanced&#10;best_downbeat_f1=0.4338&#10;completed_at~2026-03-16 15:33:40 UTC</title>
<rect x="1988.5" y="161.8" width="24" height="188.2" fill="#8fb8de" opacity="0.85"/>
<circle cx="2000.5" cy="161.8" r="3.5" fill="#1f5f99"/>
<text x="2000.5" y="368.0" text-anchor="middle" font-size="11" fill="#425466">34</text>
<text x="1996.5" y="382.0" transform="rotate(60 1996.5,382.0)" font-size="11" fill="#425466">exp_meter_from_rhythm_bilstm_w0_05_balanced</text>
</g>
<g>
<title>exp_meter_from_rhythm_bilstm_w0_05_downbeatw1_5&#10;best_downbeat_f1=0.4502&#10;completed_at~2026-03-16 17:00:22 UTC</title>
<rect x="2046.9" y="148.6" width="24" height="201.4" fill="#8fb8de" opacity="0.85"/>
<circle cx="2058.9" cy="148.6" r="3.5" fill="#1f5f99"/>
<text x="2058.9" y="368.0" text-anchor="middle" font-size="11" fill="#425466">35</text>
<text x="2054.9" y="382.0" transform="rotate(60 2054.9,382.0)" font-size="11" fill="#425466">exp_meter_from_rhythm_bilstm_w0_05_downbeatw1_5</text>
</g>
<g>
<title>exp_meter_from_rhythm_hardpred_w0_01&#10;best_downbeat_f1=0.4463&#10;completed_at~2026-03-17 02:45:02 UTC</title>
<rect x="2105.4" y="151.8" width="24" height="198.2" fill="#8fb8de" opacity="0.85"/>
<circle cx="2117.4" cy="151.8" r="3.5" fill="#1f5f99"/>
<text x="2117.4" y="368.0" text-anchor="middle" font-size="11" fill="#425466">36</text>
<text x="2113.4" y="382.0" transform="rotate(60 2113.4,382.0)" font-size="11" fill="#425466">exp_meter_from_rhythm_hardpred_w0_01</text>
</g>
<g>
<title>from_ssl_pretrain&#10;best_downbeat_f1=0.3605&#10;completed_at~2026-03-18 01:44:50 UTC</title>
<rect x="2163.8" y="220.8" width="24" height="129.2" fill="#8fb8de" opacity="0.85"/>
<circle cx="2175.8" cy="220.8" r="3.5" fill="#1f5f99"/>
<text x="2175.8" y="368.0" text-anchor="middle" font-size="11" fill="#425466">37</text>
<text x="2171.8" y="382.0" transform="rotate(60 2171.8,382.0)" font-size="11" fill="#425466">from_ssl_pretrain</text>
</g>
<g>
<title>from_ssl_plp_with_chord_boundary&#10;best_downbeat_f1=0.4894&#10;completed_at~2026-03-19 02:41:09 UTC</title>
<rect x="2222.2" y="117.1" width="24" height="232.9" fill="#8fb8de" opacity="0.85"/>
<circle cx="2234.2" cy="117.1" r="3.5" fill="#1f5f99"/>
<text x="2234.2" y="368.0" text-anchor="middle" font-size="11" fill="#425466">38</text>
<text x="2230.2" y="382.0" transform="rotate(60 2230.2,382.0)" font-size="11" fill="#425466">from_ssl_plp_with_chord_boundary</text>
</g>
<g>
<title>from_ssl_drum_constrastive_pretrain&#10;best_downbeat_f1=0.4975&#10;completed_at~2026-03-20 13:06:27 UTC</title>
<rect x="2280.7" y="110.5" width="24" height="239.5" fill="#8fb8de" opacity="0.85"/>
<circle cx="2292.7" cy="110.5" r="3.5" fill="#1f5f99"/>
<text x="2292.7" y="368.0" text-anchor="middle" font-size="11" fill="#425466">39</text>
<text x="2288.7" y="382.0" transform="rotate(60 2288.7,382.0)" font-size="11" fill="#425466">from_ssl_drum_constrastive_pretrain</text>
</g>
<g>
<title>from_ssl_no_drum_constrastive_pretrain&#10;best_downbeat_f1=0.5093&#10;completed_at~2026-03-21 03:27:34 UTC</title>
<rect x="2339.1" y="101.0" width="24" height="249.0" fill="#8fb8de" opacity="0.85"/>
<circle cx="2351.1" cy="101.0" r="3.5" fill="#1f5f99"/>
<text x="2351.1" y="368.0" text-anchor="middle" font-size="11" fill="#425466">40</text>
<text x="2347.1" y="382.0" transform="rotate(60 2347.1,382.0)" font-size="11" fill="#425466">from_ssl_no_drum_constrastive_pretrain</text>
</g>
<g>
<title>from_ssl_pretrain_harmony_onset&#10;best_downbeat_f1=0.4690&#10;completed_at~2026-03-21 09:52:48 UTC</title>
<rect x="2397.6" y="133.5" width="24" height="216.5" fill="#8fb8de" opacity="0.85"/>
<circle cx="2409.6" cy="133.5" r="3.5" fill="#1f5f99"/>
<text x="2409.6" y="368.0" text-anchor="middle" font-size="11" fill="#425466">41</text>
<text x="2405.6" y="382.0" transform="rotate(60 2405.6,382.0)" font-size="11" fill="#425466">from_ssl_pretrain_harmony_onset</text>
</g>
<g>
<title>beat_transcription_hop512&#10;best_downbeat_f1=0.5737&#10;completed_at~2026-03-21 11:38:34 UTC</title>
<rect x="2456.0" y="49.2" width="24" height="300.8" fill="#8fb8de" opacity="0.85"/>
<circle cx="2468.0" cy="49.2" r="3.5" fill="#1f5f99"/>
<text x="2468.0" y="368.0" text-anchor="middle" font-size="11" fill="#425466">42</text>
<text x="2464.0" y="382.0" transform="rotate(60 2464.0,382.0)" font-size="11" fill="#425466">beat_transcription_hop512</text>
</g>
<path d="M 72.0,258.1 L 130.4,239.7 L 188.9,239.7 L 247.3,228.6 L 305.8,228.6 L 364.2,196.8 L 422.6,196.8 L 481.1,196.8 L 539.5,196.8 L 598.0,196.8 L 656.4,196.8 L 714.8,196.8 L 773.3,196.8 L 831.7,196.8 L 890.1,196.8 L 948.6,196.8 L 1007.0,196.8 L 1065.5,196.8 L 1123.9,151.1 L 1182.3,147.2 L 1240.8,147.2 L 1299.2,147.2 L 1357.7,140.8 L 1416.1,140.8 L 1474.5,140.8 L 1533.0,140.8 L 1591.4,140.8 L 1649.9,137.3 L 1708.3,132.2 L 1766.7,132.2 L 1825.2,132.2 L 1883.6,132.2 L 1942.0,132.2 L 2000.5,132.2 L 2058.9,132.2 L 2117.4,132.2 L 2175.8,132.2 L 2234.2,117.1 L 2292.7,110.5 L 2351.1,101.0 L 2409.6,101.0 L 2468.0,49.2" fill="none" stroke="#d94841" stroke-width="2.5"/>
<circle cx="72" cy="490" r="5" fill="#8fb8de"/>
<text x="84" y="494" font-size="12" fill="#425466">best_downbeat_f1 per run</text>
<line x1="242" y1="490" x2="266" y2="490" stroke="#d94841" stroke-width="2.5"/>
<text x="274" y="494" font-size="12" fill="#425466">running best</text>
</svg>