<svg xmlns="http://www.w3.org/2000/svg" width="2436" height="520" viewBox="0 0 2436 520">
<rect width="100%" height="100%" fill="#f7f9fc"/>
<text x="24" y="22" font-size="18" font-weight="700" fill="#15212b">Best Downbeat F1 Progress</text>
<text x="24" y="42" font-size="12" fill="#425466">x-axis is estimated completion order from history/config file timestamps.</text>
<line x1="72" y1="350.0" x2="2412" y2="350.0" stroke="#d7dce2" stroke-width="1"/>
<text x="62" y="354.0" text-anchor="end" font-size="12" fill="#425466">0.200</text>
<line x1="72" y1="285.6" x2="2412" y2="285.6" stroke="#d7dce2" stroke-width="1"/>
<text x="62" y="289.6" text-anchor="end" font-size="12" fill="#425466">0.270</text>
<line x1="72" y1="221.2" x2="2412" y2="221.2" stroke="#d7dce2" stroke-width="1"/>
<text x="62" y="225.2" text-anchor="end" font-size="12" fill="#425466">0.340</text>
<line x1="72" y1="156.8" x2="2412" y2="156.8" stroke="#d7dce2" stroke-width="1"/>
<text x="62" y="160.8" text-anchor="end" font-size="12" fill="#425466">0.410</text>
<line x1="72" y1="92.4" x2="2412" y2="92.4" stroke="#d7dce2" stroke-width="1"/>
<text x="62" y="96.4" text-anchor="end" font-size="12" fill="#425466">0.480</text>
<line x1="72" y1="28.0" x2="2412" y2="28.0" stroke="#d7dce2" stroke-width="1"/>
<text x="62" y="32.0" text-anchor="end" font-size="12" fill="#425466">0.550</text>
<line x1="72" y1="28" x2="72" y2="350" stroke="#425466" stroke-width="1.2"/>
<line x1="72" y1="350" x2="2412" y2="350" stroke="#425466" stroke-width="1.2"/>
<g>
<title>beat_transcription&#10;best_downbeat_f1=0.3141&#10;completed_at~2026-03-12 16:43:41 UTC</title>
<rect x="60.0" y="245.0" width="24" height="105.0" fill="#8fb8de" opacity="0.85"/>
<circle cx="72.0" cy="245.0" r="3.5" fill="#1f5f99"/>
<text x="72.0" y="368.0" text-anchor="middle" font-size="11" fill="#425466">1</text>
<text x="68.0" y="382.0" transform="rotate(60 68.0,382.0)" font-size="11" fill="#425466">beat_transcription</text>
</g>
<g>
<title>exp_beat_plus_downbeat_logits&#10;best_downbeat_f1=0.3371&#10;completed_at~2026-03-13 01:30:16 UTC</title>
<rect x="118.5" y="223.9" width="24" height="126.1" fill="#8fb8de" opacity="0.85"/>
<circle cx="130.5" cy="223.9" r="3.5" fill="#1f5f99"/>
<text x="130.5" y="368.0" text-anchor="middle" font-size="11" fill="#425466">2</text>
<text x="126.5" y="382.0" transform="rotate(60 126.5,382.0)" font-size="11" fill="#425466">exp_beat_plus_downbeat_logits</text>
</g>
<g>
<title>exp_meter_classification&#10;best_downbeat_f1=0.2561&#10;completed_at~2026-03-13 02:52:15 UTC</title>
<rect x="177.0" y="298.4" width="24" height="51.6" fill="#8fb8de" opacity="0.85"/>
<circle cx="189.0" cy="298.4" r="3.5" fill="#1f5f99"/>
<text x="189.0" y="368.0" text-anchor="middle" font-size="11" fill="#425466">3</text>
<text x="185.0" y="382.0" transform="rotate(60 185.0,382.0)" font-size="11" fill="#425466">exp_meter_classification</text>
</g>
<g>
<title>exp_meter_classification_w0_1&#10;best_downbeat_f1=0.3508&#10;completed_at~2026-03-13 04:05:38 UTC</title>
<rect x="235.5" y="211.3" width="24" height="138.7" fill="#8fb8de" opacity="0.85"/>
<circle cx="247.5" cy="211.3" r="3.5" fill="#1f5f99"/>
<text x="247.5" y="368.0" text-anchor="middle" font-size="11" fill="#425466">4</text>
<text x="243.5" y="382.0" transform="rotate(60 243.5,382.0)" font-size="11" fill="#425466">exp_meter_classification_w0_1</text>
</g>
<g>
<title>exp_meter_classification_w0_3&#10;best_downbeat_f1=0.3249&#10;completed_at~2026-03-13 05:19:21 UTC</title>
<rect x="294.0" y="235.1" width="24" height="114.9" fill="#8fb8de" opacity="0.85"/>
<circle cx="306.0" cy="235.1" r="3.5" fill="#1f5f99"/>
<text x="306.0" y="368.0" text-anchor="middle" font-size="11" fill="#425466">5</text>
<text x="302.0" y="382.0" transform="rotate(60 302.0,382.0)" font-size="11" fill="#425466">exp_meter_classification_w0_3</text>
</g>
<g>
<title>exp_meter_classification_w0_0_5&#10;best_downbeat_f1=0.3903&#10;completed_at~2026-03-13 06:28:31 UTC</title>
<rect x="352.5" y="174.9" width="24" height="175.1" fill="#8fb8de" opacity="0.85"/>
<circle cx="364.5" cy="174.9" r="3.5" fill="#1f5f99"/>
<text x="364.5" y="368.0" text-anchor="middle" font-size="11" fill="#425466">6</text>
<text x="360.5" y="382.0" transform="rotate(60 360.5,382.0)" font-size="11" fill="#425466">exp_meter_classification_w0_0_5</text>
</g>
<g>
<title>exp_meter_numerator_w0_05&#10;best_downbeat_f1=0.3398&#10;completed_at~2026-03-13 07:51:48 UTC</title>
<rect x="411.0" y="221.4" width="24" height="128.6" fill="#8fb8de" opacity="0.85"/>
<circle cx="423.0" cy="221.4" r="3.5" fill="#1f5f99"/>
<text x="423.0" y="368.0" text-anchor="middle" font-size="11" fill="#425466">7</text>
<text x="419.0" y="382.0" transform="rotate(60 419.0,382.0)" font-size="11" fill="#425466">exp_meter_numerator_w0_05</text>
</g>
<g>
<title>exp_meter_context_lowres_w0_05&#10;best_downbeat_f1=0.3382&#10;completed_at~2026-03-13 09:11:30 UTC</title>
<rect x="469.5" y="222.8" width="24" height="127.2" fill="#8fb8de" opacity="0.85"/>
<circle cx="481.5" cy="222.8" r="3.5" fill="#1f5f99"/>
<text x="481.5" y="368.0" text-anchor="middle" font-size="11" fill="#425466">8</text>
<text x="477.5" y="382.0" transform="rotate(60 477.5,382.0)" font-size="11" fill="#425466">exp_meter_context_lowres_w0_05</text>
</g>
<g>
<title>exp_meter_downbeat_conditioning_w0_05&#10;best_downbeat_f1=0.3248&#10;completed_at~2026-03-13 11:46:17 UTC</title>
<rect x="528.0" y="235.1" width="24" height="114.9" fill="#8fb8de" opacity="0.85"/>
<circle cx="540.0" cy="235.1" r="3.5" fill="#1f5f99"/>
<text x="540.0" y="368.0" text-anchor="middle" font-size="11" fill="#425466">9</text>
<text x="536.0" y="382.0" transform="rotate(60 536.0,382.0)" font-size="11" fill="#425466">exp_meter_downbeat_conditioning_w0_05</text>
</g>
<g>
<title>exp_meter_classification_w0_0_5_beatpw10&#10;best_downbeat_f1=0.3599&#10;completed_at~2026-03-13 13:54:50 UTC</title>
<rect x="586.5" y="202.9" width="24" height="147.1" fill="#8fb8de" opacity="0.85"/>
<circle cx="598.5" cy="202.9" r="3.5" fill="#1f5f99"/>
<text x="598.5" y="368.0" text-anchor="middle" font-size="11" fill="#425466">10</text>
<text x="594.5" y="382.0" transform="rotate(60 594.5,382.0)" font-size="11" fill="#425466">exp_meter_classification_w0_0_5_beatpw10</text>
</g>
<g>
<title>exp_meter_classification_w0_0_5_beatpw7_5&#10;best_downbeat_f1=0.3493&#10;completed_at~2026-03-13 15:04:31 UTC</title>
<rect x="645.0" y="212.6" width="24" height="137.4" fill="#8fb8de" opacity="0.85"/>
<circle cx="657.0" cy="212.6" r="3.5" fill="#1f5f99"/>
<text x="657.0" y="368.0" text-anchor="middle" font-size="11" fill="#425466">11</text>
<text x="653.0" y="382.0" transform="rotate(60 653.0,382.0)" font-size="11" fill="#425466">exp_meter_classification_w0_0_5_beatpw7_5</text>
</g>
<g>
<title>exp_meter_classification_w0_0_5_specaug_f0_02_t0_00&#10;best_downbeat_f1=0.3504&#10;completed_at~2026-03-13 16:51:27 UTC</title>
<rect x="703.5" y="211.6" width="24" height="138.4" fill="#8fb8de" opacity="0.85"/>
<circle cx="715.5" cy="211.6" r="3.5" fill="#1f5f99"/>
<text x="715.5" y="368.0" text-anchor="middle" font-size="11" fill="#425466">12</text>
<text x="711.5" y="382.0" transform="rotate(60 711.5,382.0)" font-size="11" fill="#425466">exp_meter_classification_w0_0_5_specaug_f0_02_t0_00</text>
</g>
<g>
<title>exp_meter_classification_w0_0_5_specaug_f0_05_t0_00&#10;best_downbeat_f1=0.3146&#10;completed_at~2026-03-13 17:55:49 UTC</title>
<rect x="762.0" y="244.6" width="24" height="105.4" fill="#8fb8de" opacity="0.85"/>
<circle cx="774.0" cy="244.6" r="3.5" fill="#1f5f99"/>
<text x="774.0" y="368.0" text-anchor="middle" font-size="11" fill="#425466">13</text>
<text x="770.0" y="382.0" transform="rotate(60 770.0,382.0)" font-size="11" fill="#425466">exp_meter_classification_w0_0_5_specaug_f0_05_t0_00</text>
</g>
<g>
<title>exp_meter_classification_w0_0_5_specaug_f0_00_t0_05&#10;best_downbeat_f1=0.3743&#10;completed_at~2026-03-13 19:00:25 UTC</title>
<rect x="820.5" y="189.6" width="24" height="160.4" fill="#8fb8de" opacity="0.85"/>
<circle cx="832.5" cy="189.6" r="3.5" fill="#1f5f99"/>
<text x="832.5" y="368.0" text-anchor="middle" font-size="11" fill="#425466">14</text>
<text x="828.5" y="382.0" transform="rotate(60 828.5,382.0)" font-size="11" fill="#425466">exp_meter_classification_w0_0_5_specaug_f0_00_t0_05</text>
</g>
<g>
<title>exp_meter_classification_w0_0_5_specaug_f0_00_t0_10&#10;best_downbeat_f1=0.3581&#10;completed_at~2026-03-13 20:04:53 UTC</title>
<rect x="879.0" y="204.6" width="24" height="145.4" fill="#8fb8de" opacity="0.85"/>
<circle cx="891.0" cy="204.6" r="3.5" fill="#1f5f99"/>
<text x="891.0" y="368.0" text-anchor="middle" font-size="11" fill="#425466">15</text>
<text x="887.0" y="382.0" transform="rotate(60 887.0,382.0)" font-size="11" fill="#425466">exp_meter_classification_w0_0_5_specaug_f0_00_t0_10</text>
</g>
<g>
<title>exp_meter_classification_w0_0_5_specaug_f0_02_t0_05&#10;best_downbeat_f1=0.3705&#10;completed_at~2026-03-13 21:09:27 UTC</title>
<rect x="937.5" y="193.1" width="24" height="156.9" fill="#8fb8de" opacity="0.85"/>
<circle cx="949.5" cy="193.1" r="3.5" fill="#1f5f99"/>
<text x="949.5" y="368.0" text-anchor="middle" font-size="11" fill="#425466">16</text>
<text x="945.5" y="382.0" transform="rotate(60 945.5,382.0)" font-size="11" fill="#425466">exp_meter_classification_w0_0_5_specaug_f0_02_t0_05</text>
</g>
<g>
<title>exp_meter_classification_w0_0_5_specaug_f0_05_t0_10&#10;best_downbeat_f1=0.3604&#10;completed_at~2026-03-13 22:13:57 UTC</title>
<rect x="996.0" y="202.5" width="24" height="147.5" fill="#8fb8de" opacity="0.85"/>
<circle cx="1008.0" cy="202.5" r="3.5" fill="#1f5f99"/>
<text x="1008.0" y="368.0" text-anchor="middle" font-size="11" fill="#425466">17</text>
<text x="1004.0" y="382.0" transform="rotate(60 1004.0,382.0)" font-size="11" fill="#425466">exp_meter_classification_w0_0_5_specaug_f0_05_t0_10</text>
</g>
<g>
<title>exp_time_stretch_pm50&#10;best_downbeat_f1=0.3476&#10;completed_at~2026-03-14 02:53:04 UTC</title>
<rect x="1054.5" y="214.2" width="24" height="135.8" fill="#8fb8de" opacity="0.85"/>
<circle cx="1066.5" cy="214.2" r="3.5" fill="#1f5f99"/>
<text x="1066.5" y="368.0" text-anchor="middle" font-size="11" fill="#425466">18</text>
<text x="1062.5" y="382.0" transform="rotate(60 1062.5,382.0)" font-size="11" fill="#425466">exp_time_stretch_pm50</text>
</g>
<g>
<title>exp_chord_preinit_backbone&#10;best_downbeat_f1=0.4471&#10;completed_at~2026-03-14 04:28:02 UTC</title>
<rect x="1113.0" y="122.7" width="24" height="227.3" fill="#8fb8de" opacity="0.85"/>
<circle cx="1125.0" cy="122.7" r="3.5" fill="#1f5f99"/>
<text x="1125.0" y="368.0" text-anchor="middle" font-size="11" fill="#425466">19</text>
<text x="1121.0" y="382.0" transform="rotate(60 1121.0,382.0)" font-size="11" fill="#425466">exp_chord_preinit_backbone</text>
</g>
<g>
<title>exp_chord_preinit_stemdrop2&#10;best_downbeat_f1=0.4519&#10;completed_at~2026-03-14 06:27:47 UTC</title>
<rect x="1171.5" y="118.3" width="24" height="231.7" fill="#8fb8de" opacity="0.85"/>
<circle cx="1183.5" cy="118.3" r="3.5" fill="#1f5f99"/>
<text x="1183.5" y="368.0" text-anchor="middle" font-size="11" fill="#425466">20</text>
<text x="1179.5" y="382.0" transform="rotate(60 1179.5,382.0)" font-size="11" fill="#425466">exp_chord_preinit_stemdrop2</text>
</g>
<g>
<title>exp_chord_preinit_stemdrop2_phase&#10;best_downbeat_f1=0.4409&#10;completed_at~2026-03-14 07:54:13 UTC</title>
<rect x="1230.0" y="128.3" width="24" height="221.7" fill="#8fb8de" opacity="0.85"/>
<circle cx="1242.0" cy="128.3" r="3.5" fill="#1f5f99"/>
<text x="1242.0" y="368.0" text-anchor="middle" font-size="11" fill="#425466">21</text>
<text x="1238.0" y="382.0" transform="rotate(60 1238.0,382.0)" font-size="11" fill="#425466">exp_chord_preinit_stemdrop2_phase</text>
</g>
<g>
<title>exp_chord_preinit_stemdrop2_metertau0_5&#10;best_downbeat_f1=0.4401&#10;completed_at~2026-03-14 09:15:33 UTC</title>
<rect x="1288.5" y="129.1" width="24" height="220.9" fill="#8fb8de" opacity="0.85"/>
<circle cx="1300.5" cy="129.1" r="3.5" fill="#1f5f99"/>
<text x="1300.5" y="368.0" text-anchor="middle" font-size="11" fill="#425466">22</text>
<text x="1296.5" y="382.0" transform="rotate(60 1296.5,382.0)" font-size="11" fill="#425466">exp_chord_preinit_stemdrop2_metertau0_5</text>
</g>
<g>
<title>exp_chord_preinit_stemdrop2_drumaux&#10;best_downbeat_f1=0.4598&#10;completed_at~2026-03-14 10:44:21 UTC</title>
<rect x="1347.0" y="111.0" width="24" height="239.0" fill="#8fb8de" opacity="0.85"/>
<circle cx="1359.0" cy="111.0" r="3.5" fill="#1f5f99"/>
<text x="1359.0" y="368.0" text-anchor="middle" font-size="11" fill="#425466">23</text>
<text x="1355.0" y="382.0" transform="rotate(60 1355.0,382.0)" font-size="11" fill="#425466">exp_chord_preinit_stemdrop2_drumaux</text>
</g>
<g>
<title>exp_chord_preinit_stemdrop2_drumaux_bassaux&#10;best_downbeat_f1=0.4442&#10;completed_at~2026-03-14 12:07:52 UTC</title>
<rect x="1405.5" y="125.3" width="24" height="224.7" fill="#8fb8de" opacity="0.85"/>
<circle cx="1417.5" cy="125.3" r="3.5" fill="#1f5f99"/>
<text x="1417.5" y="368.0" text-anchor="middle" font-size="11" fill="#425466">24</text>
<text x="1413.5" y="382.0" transform="rotate(60 1413.5,382.0)" font-size="11" fill="#425466">exp_chord_preinit_stemdrop2_drumaux_bassaux</text>
</g>
<g>
<title>exp_chord_preinit_stemdrop2_drumaux_basslowflux&#10;best_downbeat_f1=0.4536&#10;completed_at~2026-03-14 13:26:46 UTC</title>
<rect x="1464.0" y="116.7" width="24" height="233.3" fill="#8fb8de" opacity="0.85"/>
<circle cx="1476.0" cy="116.7" r="3.5" fill="#1f5f99"/>
<text x="1476.0" y="368.0" text-anchor="middle" font-size="11" fill="#425466">25</text>
<text x="1472.0" y="382.0" transform="rotate(60 1472.0,382.0)" font-size="11" fill="#425466">exp_chord_preinit_stemdrop2_drumaux_basslowflux</text>
</g>
<g>
<title>exp_chord_preinit_stemdrop2_drumaux_bassharmonic&#10;best_downbeat_f1=0.4406&#10;completed_at~2026-03-14 14:46:30 UTC</title>
<rect x="1522.5" y="128.7" width="24" height="221.3" fill="#8fb8de" opacity="0.85"/>
<circle cx="1534.5" cy="128.7" r="3.5" fill="#1f5f99"/>
<text x="1534.5" y="368.0" text-anchor="middle" font-size="11" fill="#425466">26</text>
<text x="1530.5" y="382.0" transform="rotate(60 1530.5,382.0)" font-size="11" fill="#425466">exp_chord_preinit_stemdrop2_drumaux_bassharmonic</text>
</g>
<g>
<title>exp_chord_preinit_stemdrop2_drumaux_pianoaux&#10;best_downbeat_f1=0.4440&#10;completed_at~2026-03-14 16:06:07 UTC</title>
<rect x="1581.0" y="125.5" width="24" height="224.5" fill="#8fb8de" opacity="0.85"/>
<circle cx="1593.0" cy="125.5" r="3.5" fill="#1f5f99"/>
<text x="1593.0" y="368.0" text-anchor="middle" font-size="11" fill="#425466">27</text>
<text x="1589.0" y="382.0" transform="rotate(60 1589.0,382.0)" font-size="11" fill="#425466">exp_chord_preinit_stemdrop2_drumaux_pianoaux</text>
</g>
<g>
<title>exp_chord_preinit_stemdrop2_drumaux_highfreq&#10;best_downbeat_f1=0.4642&#10;completed_at~2026-03-15 03:28:47 UTC</title>
<rect x="1639.5" y="107.0" width="24" height="243.0" fill="#8fb8de" opacity="0.85"/>
<circle cx="1651.5" cy="107.0" r="3.5" fill="#1f5f99"/>
<text x="1651.5" y="368.0" text-anchor="middle" font-size="11" fill="#425466">28</text>
<text x="1647.5" y="382.0" transform="rotate(60 1647.5,382.0)" font-size="11" fill="#425466">exp_chord_preinit_stemdrop2_drumaux_highfreq</text>
</g>
<g>
<title>exp_chord_preinit_stemdrop2_drumaux_highfreq_repeatssm&#10;best_downbeat_f1=0.4705&#10;completed_at~2026-03-15 05:34:47 UTC</title>
<rect x="1698.0" y="101.1" width="24" height="248.9" fill="#8fb8de" opacity="0.85"/>
<circle cx="1710.0" cy="101.1" r="3.5" fill="#1f5f99"/>
<text x="1710.0" y="368.0" text-anchor="middle" font-size="11" fill="#425466">29</text>
<text x="1706.0" y="382.0" transform="rotate(60 1706.0,382.0)" font-size="11" fill="#425466">exp_chord_preinit_stemdrop2_drumaux_highfreq_repeatssm</text>
</g>
<g>
<title>exp_chord_preinit_stemdrop2_drumaux_highfreq_repeatssm_bar&#10;best_downbeat_f1=0.4594&#10;completed_at~2026-03-15 07:42:39 UTC</title>
<rect x="1756.5" y="111.3" width="24" height="238.7" fill="#8fb8de" opacity="0.85"/>
<circle cx="1768.5" cy="111.3" r="3.5" fill="#1f5f99"/>
<text x="1768.5" y="368.0" text-anchor="middle" font-size="11" fill="#425466">30</text>
<text x="1764.5" y="382.0" transform="rotate(60 1764.5,382.0)" font-size="11" fill="#425466">exp_chord_preinit_stemdrop2_drumaux_highfreq_repeatssm_bar</text>
</g>
<g>
<title>exp_chord_preinit_stemdrop2_drumaux_highfreq_repeatssm_timestretch_pm10&#10;best_downbeat_f1=0.3784&#10;completed_at~2026-03-15 10:06:35 UTC</title>
<rect x="1815.0" y="185.8" width="24" height="164.2" fill="#8fb8de" opacity="0.85"/>
<circle cx="1827.0" cy="185.8" r="3.5" fill="#1f5f99"/>
<text x="1827.0" y="368.0" text-anchor="middle" font-size="11" fill="#425466">31</text>
<text x="1823.0" y="382.0" transform="rotate(60 1823.0,382.0)" font-size="11" fill="#425466">exp_chord_preinit_stemdrop2_drumaux_highfreq_repeatssm_timestretch_pm10</text>
</g>
<g>
<title>exp_meter_from_rhythm_head&#10;best_downbeat_f1=0.4464&#10;completed_at~2026-03-15 14:50:16 UTC</title>
<rect x="1873.5" y="123.3" width="24" height="226.7" fill="#8fb8de" opacity="0.85"/>
<circle cx="1885.5" cy="123.3" r="3.5" fill="#1f5f99"/>
<text x="1885.5" y="368.0" text-anchor="middle" font-size="11" fill="#425466">32</text>
<text x="1881.5" y="382.0" transform="rotate(60 1881.5,382.0)" font-size="11" fill="#425466">exp_meter_from_rhythm_head</text>
</g>
<g>
<title>exp_meter_from_rhythm_bilstm_w0_05&#10;best_downbeat_f1=0.4431&#10;completed_at~2026-03-16 14:10:41 UTC</title>
<rect x="1932.0" y="126.3" width="24" height="223.7" fill="#8fb8de" opacity="0.85"/>
<circle cx="1944.0" cy="126.3" r="3.5" fill="#1f5f99"/>
<text x="1944.0" y="368.0" text-anchor="middle" font-size="11" fill="#425466">33</text>
<text x="1940.0" y="382.0" transform="rotate(60 1940.0,382.0)" font-size="11" fill="#425466">exp_meter_from_rhythm_bilstm_w0_05</text>
</g>
<g>
<title>exp_meter_from_rhythm_bilstm_w0_05_balanced&#10;best_downbeat_f1=0.4338&#10;completed_at~2026-03-16 15:33:40 UTC</title>
<rect x="1990.5" y="134.9" width="24" height="215.1" fill="#8fb8de" opacity="0.85"/>
<circle cx="2002.5" cy="134.9" r="3.5" fill="#1f5f99"/>
<text x="2002.5" y="368.0" text-anchor="middle" font-size="11" fill="#425466">34</text>
<text x="1998.5" y="382.0" transform="rotate(60 1998.5,382.0)" font-size="11" fill="#425466">exp_meter_from_rhythm_bilstm_w0_05_balanced</text>
</g>
<g>
<title>exp_meter_from_rhythm_bilstm_w0_05_downbeatw1_5&#10;best_downbeat_f1=0.4502&#10;completed_at~2026-03-16 17:00:22 UTC</title>
<rect x="2049.0" y="119.8" width="24" height="230.2" fill="#8fb8de" opacity="0.85"/>
<circle cx="2061.0" cy="119.8" r="3.5" fill="#1f5f99"/>
<text x="2061.0" y="368.0" text-anchor="middle" font-size="11" fill="#425466">35</text>
<text x="2057.0" y="382.0" transform="rotate(60 2057.0,382.0)" font-size="11" fill="#425466">exp_meter_from_rhythm_bilstm_w0_05_downbeatw1_5</text>
</g>
<g>
<title>exp_meter_from_rhythm_hardpred_w0_01&#10;best_downbeat_f1=0.4463&#10;completed_at~2026-03-17 02:45:02 UTC</title>
<rect x="2107.5" y="123.4" width="24" height="226.6" fill="#8fb8de" opacity="0.85"/>
<circle cx="2119.5" cy="123.4" r="3.5" fill="#1f5f99"/>
<text x="2119.5" y="368.0" text-anchor="middle" font-size="11" fill="#425466">36</text>
<text x="2115.5" y="382.0" transform="rotate(60 2115.5,382.0)" font-size="11" fill="#425466">exp_meter_from_rhythm_hardpred_w0_01</text>
</g>
<g>
<title>from_ssl_pretrain&#10;best_downbeat_f1=0.3605&#10;completed_at~2026-03-18 01:44:50 UTC</title>
<rect x="2166.0" y="202.3" width="24" height="147.7" fill="#8fb8de" opacity="0.85"/>
<circle cx="2178.0" cy="202.3" r="3.5" fill="#1f5f99"/>
<text x="2178.0" y="368.0" text-anchor="middle" font-size="11" fill="#425466">37</text>
<text x="2174.0" y="382.0" transform="rotate(60 2174.0,382.0)" font-size="11" fill="#425466">from_ssl_pretrain</text>
</g>
<g>
<title>from_ssl_plp_with_chord_boundary&#10;best_downbeat_f1=0.4894&#10;completed_at~2026-03-19 02:41:09 UTC</title>
<rect x="2224.5" y="83.8" width="24" height="266.2" fill="#8fb8de" opacity="0.85"/>
<circle cx="2236.5" cy="83.8" r="3.5" fill="#1f5f99"/>
<text x="2236.5" y="368.0" text-anchor="middle" font-size="11" fill="#425466">38</text>
<text x="2232.5" y="382.0" transform="rotate(60 2232.5,382.0)" font-size="11" fill="#425466">from_ssl_plp_with_chord_boundary</text>
</g>
<g>
<title>from_ssl_drum_constrastive_pretrain&#10;best_downbeat_f1=0.4975&#10;completed_at~2026-03-20 13:06:27 UTC</title>
<rect x="2283.0" y="76.3" width="24" height="273.7" fill="#8fb8de" opacity="0.85"/>
<circle cx="2295.0" cy="76.3" r="3.5" fill="#1f5f99"/>
<text x="2295.0" y="368.0" text-anchor="middle" font-size="11" fill="#425466">39</text>
<text x="2291.0" y="382.0" transform="rotate(60 2291.0,382.0)" font-size="11" fill="#425466">from_ssl_drum_constrastive_pretrain</text>
</g>
<g>
<title>from_ssl_no_drum_constrastive_pretrain&#10;best_downbeat_f1=0.5093&#10;completed_at~2026-03-21 03:27:34 UTC</title>
<rect x="2341.5" y="65.4" width="24" height="284.6" fill="#8fb8de" opacity="0.85"/>
<circle cx="2353.5" cy="65.4" r="3.5" fill="#1f5f99"/>
<text x="2353.5" y="368.0" text-anchor="middle" font-size="11" fill="#425466">40</text>
<text x="2349.5" y="382.0" transform="rotate(60 2349.5,382.0)" font-size="11" fill="#425466">from_ssl_no_drum_constrastive_pretrain</text>
</g>
<g>
<title>from_ssl_pretrain_harmony_onset&#10;best_downbeat_f1=0.4690&#10;completed_at~2026-03-21 09:52:48 UTC</title>
<rect x="2400.0" y="102.5" width="24" height="247.5" fill="#8fb8de" opacity="0.85"/>
<circle cx="2412.0" cy="102.5" r="3.5" fill="#1f5f99"/>
<text x="2412.0" y="368.0" text-anchor="middle" font-size="11" fill="#425466">41</text>
<text x="2408.0" y="382.0" transform="rotate(60 2408.0,382.0)" font-size="11" fill="#425466">from_ssl_pretrain_harmony_onset</text>
</g>
<path d="M 72.0,245.0 L 130.5,223.9 L 189.0,223.9 L 247.5,211.3 L 306.0,211.3 L 364.5,174.9 L 423.0,174.9 L 481.5,174.9 L 540.0,174.9 L 598.5,174.9 L 657.0,174.9 L 715.5,174.9 L 774.0,174.9 L 832.5,174.9 L 891.0,174.9 L 949.5,174.9 L 1008.0,174.9 L 1066.5,174.9 L 1125.0,122.7 L 1183.5,118.3 L 1242.0,118.3 L 1300.5,118.3 L 1359.0,111.0 L 1417.5,111.0 L 1476.0,111.0 L 1534.5,111.0 L 1593.0,111.0 L 1651.5,107.0 L 1710.0,101.1 L 1768.5,101.1 L 1827.0,101.1 L 1885.5,101.1 L 1944.0,101.1 L 2002.5,101.1 L 2061.0,101.1 L 2119.5,101.1 L 2178.0,101.1 L 2236.5,83.8 L 2295.0,76.3 L 2353.5,65.4 L 2412.0,65.4" fill="none" stroke="#d94841" stroke-width="2.5"/>
<circle cx="72" cy="490" r="5" fill="#8fb8de"/>
<text x="84" y="494" font-size="12" fill="#425466">best_downbeat_f1 per run</text>
<line x1="242" y1="490" x2="266" y2="490" stroke="#d94841" stroke-width="2.5"/>
<text x="274" y="494" font-size="12" fill="#425466">running best</text>
</svg>